<svg width="1014" height="507" viewBox="0 0 1014 507" fill="none" xmlns="http://www.w3.org/2000/svg">
<g filter="url(#filter0_d_109_4)">
<rect x="19" y="124" width="871" height="361" rx="17" fill="#7DF9FF"/>
<rect x="14.5" y="119.5" width="880" height="370" rx="21.5" stroke="black" stroke-width="9"/>
</g>
<path d="M85.4471 290V264.32H94.4711L94.8551 269.6L93.1271 268.592C93.7991 267.856 94.5191 267.2 95.2871 266.624C96.0551 266.016 96.8711 265.504 97.7351 265.088C98.6311 264.672 99.6071 264.352 100.663 264.128C101.719 263.904 102.855 263.792 104.071 263.792C105.415 263.792 106.663 263.968 107.815 264.32C108.999 264.672 110.055 265.312 110.983 266.24C111.943 267.136 112.695 268.416 113.239 270.08L111.127 269.936L111.559 269.264C112.199 268.464 112.919 267.728 113.719 267.056C114.551 266.384 115.447 265.808 116.407 265.328C117.399 264.848 118.455 264.48 119.575 264.224C120.727 263.936 121.943 263.792 123.223 263.792C125.847 263.792 127.959 264.272 129.559 265.232C131.191 266.16 132.375 267.44 133.111 269.072C133.879 270.672 134.263 272.464 134.263 274.448V290H124.519V275.6C124.519 274.864 124.375 274.208 124.087 273.632C123.799 273.056 123.351 272.592 122.743 272.24C122.167 271.888 121.431 271.712 120.535 271.712C119.703 271.712 118.935 271.84 118.231 272.096C117.527 272.32 116.903 272.656 116.359 273.104C115.847 273.552 115.447 274.08 115.159 274.688C114.871 275.264 114.727 275.888 114.727 276.56V290H104.983V275.6C104.983 274.864 104.807 274.208 104.455 273.632C104.135 273.024 103.639 272.56 102.967 272.24C102.295 271.888 101.399 271.712 100.279 271.712C99.5111 271.712 98.8071 271.856 98.1671 272.144C97.5591 272.432 97.0311 272.8 96.5831 273.248C96.1351 273.696 95.7831 274.16 95.5271 274.64C95.3031 275.12 95.1911 275.568 95.1911 275.984V290H85.4471ZM156.939 290.48C153.515 290.48 150.539 289.904 148.011 288.752C145.483 287.6 143.531 286.016 142.155 284C140.811 281.984 140.139 279.696 140.139 277.136C140.139 275.12 140.539 273.296 141.339 271.664C142.171 270.032 143.291 268.64 144.699 267.488C146.107 266.304 147.755 265.392 149.643 264.752C151.531 264.112 153.515 263.792 155.595 263.792C157.803 263.792 159.819 264.128 161.643 264.8C163.499 265.44 165.099 266.352 166.443 267.536C167.819 268.72 168.875 270.128 169.611 271.76C170.347 273.392 170.683 275.184 170.619 277.136L170.571 279.248H146.139L145.035 274.112H162.843L161.931 275.552V274.688C161.867 274.016 161.563 273.44 161.019 272.96C160.475 272.448 159.755 272.048 158.859 271.76C157.963 271.472 156.939 271.328 155.787 271.328C154.539 271.328 153.403 271.52 152.379 271.904C151.355 272.256 150.539 272.816 149.931 273.584C149.323 274.32 149.019 275.248 149.019 276.368C149.019 277.52 149.387 278.56 150.123 279.488C150.859 280.416 151.915 281.168 153.291 281.744C154.699 282.288 156.395 282.56 158.379 282.56C160.203 282.56 161.659 282.384 162.747 282.032C163.867 281.648 164.731 281.296 165.339 280.976L169.563 286.928C168.251 287.792 166.907 288.48 165.531 288.992C164.187 289.504 162.811 289.872 161.403 290.096C159.995 290.352 158.507 290.48 156.939 290.48ZM192.585 298.4C189.737 298.4 187.145 297.92 184.809 296.96C182.473 296.032 180.441 294.72 178.713 293.024C177.017 291.36 175.705 289.392 174.777 287.12C173.849 284.848 173.385 282.384 173.385 279.728C173.385 275.984 174.121 272.608 175.593 269.6C177.097 266.592 179.161 264.016 181.785 261.872C184.409 259.728 187.433 258.096 190.857 256.976C194.313 255.856 197.993 255.296 201.897 255.296C205.193 255.296 208.121 255.728 210.681 256.592C213.273 257.456 215.449 258.656 217.209 260.192C218.969 261.728 220.313 263.52 221.241 265.568C222.169 267.616 222.633 269.84 222.633 272.24C222.633 274.672 222.265 276.864 221.529 278.816C220.793 280.736 219.769 282.368 218.457 283.712C217.177 285.024 215.705 286.032 214.041 286.736C212.409 287.44 210.665 287.792 208.809 287.792C207.305 287.792 205.993 287.536 204.873 287.024C203.785 286.512 202.937 285.84 202.329 285.008C201.753 284.144 201.465 283.248 201.465 282.32C201.465 281.776 201.465 281.264 201.465 280.784C201.465 280.272 201.465 279.776 201.465 279.296L203.385 280.448C202.617 281.92 201.641 283.216 200.457 284.336C199.273 285.424 197.993 286.272 196.617 286.88C195.241 287.488 193.833 287.792 192.393 287.792C190.633 287.792 189.049 287.44 187.641 286.736C186.233 286 185.129 284.96 184.329 283.616C183.529 282.272 183.129 280.704 183.129 278.912C183.129 277.28 183.465 275.632 184.137 273.968C184.809 272.272 185.753 270.736 186.969 269.36C188.217 267.984 189.657 266.88 191.289 266.048C192.921 265.184 194.681 264.752 196.569 264.752C198.041 264.752 199.321 265.056 200.409 265.664C201.497 266.24 202.361 267.008 203.001 267.968C203.673 268.928 204.089 270.016 204.249 271.232L202.233 271.808L203.721 265.76H212.169L209.337 278.72C209.177 279.552 209.145 280.224 209.241 280.736C209.337 281.248 209.545 281.616 209.865 281.84C210.217 282.064 210.681 282.176 211.257 282.176C212.057 282.176 212.857 281.968 213.657 281.552C214.457 281.104 215.193 280.464 215.865 279.632C216.537 278.8 217.065 277.792 217.449 276.608C217.833 275.392 218.025 274.016 218.025 272.48C218.025 269.76 217.353 267.424 216.009 265.472C214.697 263.488 212.809 261.968 210.345 260.912C207.913 259.824 204.969 259.28 201.513 259.28C198.025 259.28 194.825 259.744 191.913 260.672C189.033 261.568 186.553 262.896 184.473 264.656C182.425 266.416 180.841 268.56 179.721 271.088C178.601 273.616 178.041 276.48 178.041 279.68C178.041 281.92 178.393 283.92 179.097 285.68C179.833 287.44 180.841 288.944 182.121 290.192C183.433 291.472 184.985 292.432 186.777 293.072C188.569 293.744 190.553 294.08 192.729 294.08C194.425 294.08 195.865 293.984 197.049 293.792C198.233 293.6 199.369 293.28 200.457 292.832C201.577 292.416 202.841 291.872 204.249 291.2L206.025 294.896C204.489 295.6 203.033 296.208 201.657 296.72C200.281 297.264 198.873 297.68 197.433 297.968C195.993 298.256 194.377 298.4 192.585 298.4ZM195.513 280.304C196.345 280.304 197.145 280.16 197.913 279.872C198.713 279.584 199.417 279.136 200.025 278.528C200.665 277.888 201.177 277.04 201.561 275.984C201.657 275.728 201.737 275.44 201.801 275.12C201.897 274.768 201.945 274.448 201.945 274.16C202.009 273.584 201.929 273.088 201.705 272.672C201.481 272.256 201.097 271.936 200.553 271.712C200.041 271.488 199.385 271.376 198.585 271.376C197.337 271.376 196.265 271.664 195.369 272.24C194.505 272.816 193.833 273.568 193.353 274.496C192.905 275.392 192.681 276.384 192.681 277.472C192.681 278.304 192.969 278.992 193.545 279.536C194.121 280.048 194.777 280.304 195.513 280.304ZM228.822 290V264.32H238.566V290H228.822ZM233.718 259.376C231.99 259.376 230.63 258.976 229.638 258.176C228.678 257.376 228.198 256.24 228.198 254.768C228.198 253.424 228.694 252.32 229.686 251.456C230.678 250.592 232.022 250.16 233.718 250.16C235.446 250.16 236.79 250.56 237.75 251.36C238.742 252.16 239.238 253.296 239.238 254.768C239.238 256.112 238.742 257.216 237.75 258.08C236.79 258.944 235.446 259.376 233.718 259.376ZM258.788 290.432C256.068 290.432 253.7 289.872 251.684 288.752C249.668 287.6 248.1 286.032 246.98 284.048C245.892 282.064 245.348 279.776 245.348 277.184C245.348 274.56 245.908 272.24 247.028 270.224C248.148 268.208 249.7 266.64 251.684 265.52C253.7 264.368 256.068 263.792 258.788 263.792C260.324 263.792 261.716 263.968 262.964 264.32C264.244 264.672 265.364 265.152 266.324 265.76C267.284 266.336 268.084 266.976 268.724 267.68C269.396 268.384 269.876 269.072 270.164 269.744L267.956 269.984V264.32H277.508V290H267.716V283.088L269.78 283.76C269.588 284.592 269.172 285.408 268.532 286.208C267.892 287.008 267.092 287.728 266.132 288.368C265.204 288.976 264.116 289.472 262.868 289.856C261.62 290.24 260.26 290.432 258.788 290.432ZM261.476 282.512C262.852 282.512 264.02 282.304 264.98 281.888C265.94 281.44 266.676 280.816 267.188 280.016C267.7 279.216 267.956 278.272 267.956 277.184C267.956 276.032 267.7 275.056 267.188 274.256C266.676 273.456 265.94 272.848 264.98 272.432C264.02 271.984 262.852 271.76 261.476 271.76C260.1 271.76 258.916 271.984 257.924 272.432C256.964 272.848 256.212 273.456 255.668 274.256C255.156 275.056 254.9 276.032 254.9 277.184C254.9 278.272 255.156 279.216 255.668 280.016C256.212 280.816 256.964 281.44 257.924 281.888C258.916 282.304 260.1 282.512 261.476 282.512ZM287.122 290V264.32H296.146L296.53 269.6L294.802 268.592C295.474 267.856 296.194 267.2 296.962 266.624C297.73 266.016 298.546 265.504 299.41 265.088C300.306 264.672 301.282 264.352 302.338 264.128C303.394 263.904 304.53 263.792 305.746 263.792C307.09 263.792 308.338 263.968 309.49 264.32C310.674 264.672 311.73 265.312 312.658 266.24C313.618 267.136 314.37 268.416 314.914 270.08L312.802 269.936L313.234 269.264C313.874 268.464 314.594 267.728 315.394 267.056C316.226 266.384 317.122 265.808 318.082 265.328C319.074 264.848 320.13 264.48 321.25 264.224C322.402 263.936 323.618 263.792 324.898 263.792C327.522 263.792 329.634 264.272 331.234 265.232C332.866 266.16 334.05 267.44 334.786 269.072C335.554 270.672 335.938 272.464 335.938 274.448V290H326.194V275.6C326.194 274.864 326.05 274.208 325.762 273.632C325.474 273.056 325.026 272.592 324.418 272.24C323.842 271.888 323.106 271.712 322.21 271.712C321.378 271.712 320.61 271.84 319.906 272.096C319.202 272.32 318.578 272.656 318.034 273.104C317.522 273.552 317.122 274.08 316.834 274.688C316.546 275.264 316.402 275.888 316.402 276.56V290H306.658V275.6C306.658 274.864 306.482 274.208 306.13 273.632C305.81 273.024 305.314 272.56 304.642 272.24C303.97 271.888 303.074 271.712 301.954 271.712C301.186 271.712 300.482 271.856 299.842 272.144C299.234 272.432 298.706 272.8 298.258 273.248C297.81 273.696 297.458 274.16 297.202 274.64C296.978 275.12 296.866 275.568 296.866 275.984V290H287.122ZM355.398 290.528C353.19 290.528 351.286 290.064 349.686 289.136C348.118 288.208 346.902 286.832 346.038 285.008C345.206 283.184 344.79 280.96 344.79 278.336V264.32H354.534V277.184C354.534 278.336 354.678 279.28 354.966 280.016C355.286 280.752 355.782 281.312 356.454 281.696C357.126 282.048 358.006 282.224 359.094 282.224C359.83 282.224 360.518 282.112 361.158 281.888C361.83 281.664 362.406 281.344 362.886 280.928C363.398 280.512 363.798 280.016 364.086 279.44C364.374 278.832 364.518 278.16 364.518 277.424V264.32H374.262V290H365.334L364.758 284.816L366.582 284.24C366.198 285.328 365.494 286.352 364.47 287.312C363.478 288.272 362.198 289.056 360.63 289.664C359.094 290.24 357.35 290.528 355.398 290.528ZM395.196 290.48C391.932 290.48 389.004 290.064 386.412 289.232C383.852 288.368 381.82 287.2 380.316 285.728L385.98 280.688C387.1 281.616 388.54 282.368 390.3 282.944C392.06 283.488 393.948 283.76 395.964 283.76C396.444 283.76 396.892 283.744 397.308 283.712C397.756 283.648 398.124 283.552 398.412 283.424C398.732 283.296 398.972 283.152 399.132 282.992C399.324 282.832 399.42 282.624 399.42 282.368C399.42 282.016 399.132 281.744 398.556 281.552C398.012 281.328 397.244 281.152 396.252 281.024C395.292 280.896 394.332 280.752 393.372 280.592C391.42 280.304 389.724 279.984 388.284 279.632C386.876 279.248 385.644 278.736 384.588 278.096C383.628 277.424 382.86 276.608 382.284 275.648C381.708 274.688 381.42 273.536 381.42 272.192C381.42 270.848 381.772 269.664 382.476 268.64C383.212 267.584 384.204 266.704 385.452 266C386.732 265.264 388.172 264.72 389.772 264.368C391.404 263.984 393.084 263.792 394.812 263.792C396.572 263.792 398.284 263.936 399.948 264.224C401.644 264.48 403.244 264.88 404.748 265.424C406.284 265.968 407.66 266.672 408.876 267.536L404.076 273.248C403.34 272.768 402.428 272.304 401.34 271.856C400.284 271.408 399.1 271.04 397.788 270.752C396.508 270.464 395.196 270.32 393.852 270.32C393.372 270.32 392.94 270.352 392.556 270.416C392.204 270.448 391.868 270.528 391.548 270.656C391.26 270.752 391.036 270.88 390.876 271.04C390.748 271.168 390.684 271.328 390.684 271.52C390.684 271.68 390.732 271.856 390.828 272.048C390.924 272.208 391.1 272.352 391.356 272.48C391.804 272.704 392.508 272.896 393.468 273.056C394.46 273.216 395.628 273.424 396.972 273.68C399.564 274.128 401.676 274.656 403.308 275.264C404.972 275.84 406.252 276.496 407.148 277.232C407.852 277.84 408.348 278.512 408.636 279.248C408.924 279.984 409.068 280.8 409.068 281.696C409.068 283.392 408.492 284.912 407.34 286.256C406.188 287.568 404.588 288.608 402.54 289.376C400.492 290.112 398.044 290.48 395.196 290.48ZM415.075 290V264.32H424.819V290H415.075ZM419.971 259.376C418.243 259.376 416.883 258.976 415.891 258.176C414.931 257.376 414.451 256.24 414.451 254.768C414.451 253.424 414.947 252.32 415.939 251.456C416.931 250.592 418.275 250.16 419.971 250.16C421.699 250.16 423.043 250.56 424.003 251.36C424.995 252.16 425.491 253.296 425.491 254.768C425.491 256.112 424.995 257.216 424.003 258.08C423.043 258.944 421.699 259.376 419.971 259.376ZM448.401 290.48C445.201 290.48 442.385 289.904 439.953 288.752C437.521 287.6 435.617 286.016 434.241 284C432.865 281.984 432.177 279.696 432.177 277.136C432.177 274.544 432.849 272.256 434.193 270.272C435.569 268.256 437.425 266.672 439.761 265.52C442.129 264.368 444.801 263.792 447.777 263.792C450.529 263.792 453.057 264.128 455.361 264.8C457.697 265.472 459.713 266.464 461.409 267.776L456.081 274.448C455.505 274 454.833 273.6 454.065 273.248C453.297 272.896 452.481 272.624 451.617 272.432C450.753 272.208 449.809 272.096 448.785 272.096C447.377 272.096 446.161 272.304 445.137 272.72C444.145 273.136 443.377 273.712 442.833 274.448C442.321 275.184 442.065 276.064 442.065 277.088C442.065 278.08 442.321 278.96 442.833 279.728C443.345 280.496 444.097 281.088 445.089 281.504C446.113 281.92 447.313 282.128 448.689 282.128C449.937 282.128 451.025 282.048 451.953 281.888C452.881 281.696 453.681 281.472 454.353 281.216C455.057 280.928 455.649 280.624 456.129 280.304L461.361 286.928C459.665 288.016 457.745 288.88 455.601 289.52C453.457 290.16 451.057 290.48 448.401 290.48ZM481.582 301.04C478.542 301.04 475.806 300.704 473.374 300.032C470.942 299.36 468.958 298.544 467.422 297.584L470.638 290.864C471.406 291.216 472.222 291.568 473.086 291.92C473.982 292.304 474.974 292.608 476.062 292.832C477.182 293.056 478.446 293.168 479.854 293.168C481.422 293.168 482.75 292.912 483.838 292.4C484.926 291.888 485.742 291.104 486.286 290.048C486.862 289.024 487.15 287.712 487.15 286.112V283.52L489.31 283.712C489.054 284.768 488.366 285.728 487.246 286.592C486.126 287.424 484.718 288.08 483.022 288.56C481.358 289.04 479.55 289.28 477.598 289.28C475.006 289.28 472.734 288.784 470.782 287.792C468.83 286.768 467.31 285.328 466.222 283.472C465.134 281.616 464.59 279.44 464.59 276.944C464.59 274.32 465.15 272.032 466.27 270.08C467.422 268.096 468.99 266.56 470.974 265.472C472.99 264.352 475.326 263.792 477.982 263.792C478.782 263.792 479.678 263.872 480.67 264.032C481.662 264.16 482.654 264.384 483.646 264.704C484.638 265.024 485.55 265.408 486.382 265.856C487.246 266.304 487.934 266.848 488.446 267.488C488.99 268.096 489.294 268.784 489.358 269.552L487.39 269.984L487.918 264.32H496.942V286.256C496.942 288.72 496.542 290.864 495.742 292.688C494.942 294.544 493.838 296.096 492.43 297.344C491.054 298.592 489.438 299.52 487.582 300.128C485.726 300.736 483.726 301.04 481.582 301.04ZM480.958 282.32C482.334 282.32 483.502 282.112 484.462 281.696C485.422 281.28 486.142 280.672 486.622 279.872C487.134 279.072 487.39 278.128 487.39 277.04C487.39 275.92 487.134 274.976 486.622 274.208C486.142 273.408 485.422 272.8 484.462 272.384C483.502 271.936 482.334 271.712 480.958 271.712C479.55 271.712 478.334 271.936 477.31 272.384C476.286 272.8 475.502 273.408 474.958 274.208C474.414 274.976 474.142 275.92 474.142 277.04C474.142 278.128 474.414 279.072 474.958 279.872C475.502 280.672 476.286 281.28 477.31 281.696C478.334 282.112 479.55 282.32 480.958 282.32ZM516.336 290.432C513.616 290.432 511.248 289.872 509.232 288.752C507.216 287.6 505.648 286.032 504.528 284.048C503.44 282.064 502.896 279.776 502.896 277.184C502.896 274.56 503.456 272.24 504.576 270.224C505.696 268.208 507.248 266.64 509.232 265.52C511.248 264.368 513.616 263.792 516.336 263.792C517.872 263.792 519.264 263.968 520.512 264.32C521.792 264.672 522.912 265.152 523.872 265.76C524.832 266.336 525.632 266.976 526.272 267.68C526.944 268.384 527.424 269.072 527.712 269.744L525.504 269.984V264.32H535.056V290H525.264V283.088L527.328 283.76C527.136 284.592 526.72 285.408 526.08 286.208C525.44 287.008 524.64 287.728 523.68 288.368C522.752 288.976 521.664 289.472 520.416 289.856C519.168 290.24 517.808 290.432 516.336 290.432ZM519.024 282.512C520.4 282.512 521.568 282.304 522.528 281.888C523.488 281.44 524.224 280.816 524.736 280.016C525.248 279.216 525.504 278.272 525.504 277.184C525.504 276.032 525.248 275.056 524.736 274.256C524.224 273.456 523.488 272.848 522.528 272.432C521.568 271.984 520.4 271.76 519.024 271.76C517.648 271.76 516.464 271.984 515.472 272.432C514.512 272.848 513.76 273.456 513.216 274.256C512.704 275.056 512.448 276.032 512.448 277.184C512.448 278.272 512.704 279.216 513.216 280.016C513.76 280.816 514.512 281.44 515.472 281.888C516.464 282.304 517.648 282.512 519.024 282.512ZM563.054 290.528C561.486 290.528 560.046 290.352 558.734 290C557.422 289.68 556.27 289.232 555.278 288.656C554.286 288.048 553.47 287.392 552.83 286.688C552.222 285.952 551.822 285.216 551.63 284.48L554.222 284.336L553.454 290H544.67V254.48H554.462V270.608L551.678 270.224C551.934 269.424 552.382 268.64 553.022 267.872C553.694 267.104 554.526 266.416 555.518 265.808C556.51 265.168 557.646 264.672 558.926 264.32C560.238 263.968 561.63 263.792 563.102 263.792C565.63 263.792 567.886 264.368 569.87 265.52C571.886 266.672 573.486 268.256 574.67 270.272C575.854 272.288 576.446 274.592 576.446 277.184C576.446 279.808 575.87 282.128 574.718 284.144C573.566 286.16 571.982 287.728 569.966 288.848C567.982 289.968 565.678 290.528 563.054 290.528ZM560.414 282.56C561.79 282.56 562.942 282.352 563.87 281.936C564.83 281.488 565.566 280.864 566.078 280.064C566.59 279.264 566.846 278.304 566.846 277.184C566.846 276.032 566.59 275.056 566.078 274.256C565.566 273.456 564.83 272.848 563.87 272.432C562.91 272.016 561.758 271.808 560.414 271.808C559.07 271.808 557.902 272.016 556.91 272.432C555.95 272.848 555.198 273.456 554.654 274.256C554.142 275.056 553.886 276.032 553.886 277.184C553.886 278.304 554.142 279.264 554.654 280.064C555.198 280.864 555.95 281.488 556.91 281.936C557.902 282.352 559.07 282.56 560.414 282.56ZM583.318 290V264.32H592.342L592.918 273.68L590.134 273.344C590.646 271.552 591.462 269.936 592.582 268.496C593.702 267.056 595.03 265.92 596.566 265.088C598.134 264.224 599.798 263.792 601.558 263.792C602.55 263.792 603.494 263.888 604.39 264.08C605.286 264.24 606.102 264.496 606.838 264.848L604.15 275.456C603.606 275.072 602.806 274.752 601.75 274.496C600.694 274.208 599.622 274.064 598.534 274.064C597.606 274.064 596.79 274.192 596.086 274.448C595.382 274.704 594.806 275.072 594.358 275.552C593.91 276.032 593.574 276.576 593.35 277.184C593.158 277.76 593.062 278.368 593.062 279.008V290H583.318ZM613.397 290V264.32H623.141V290H613.397ZM618.293 259.376C616.565 259.376 615.205 258.976 614.213 258.176C613.253 257.376 612.773 256.24 612.773 254.768C612.773 253.424 613.269 252.32 614.261 251.456C615.253 250.592 616.597 250.16 618.293 250.16C620.021 250.16 621.365 250.56 622.325 251.36C623.317 252.16 623.813 253.296 623.813 254.768C623.813 256.112 623.317 257.216 622.325 258.08C621.365 258.944 620.021 259.376 618.293 259.376ZM646.676 290.48C643.252 290.48 640.276 289.904 637.748 288.752C635.22 287.6 633.268 286.016 631.892 284C630.548 281.984 629.876 279.696 629.876 277.136C629.876 275.12 630.276 273.296 631.076 271.664C631.908 270.032 633.028 268.64 634.436 267.488C635.844 266.304 637.492 265.392 639.38 264.752C641.268 264.112 643.252 263.792 645.332 263.792C647.54 263.792 649.556 264.128 651.38 264.8C653.236 265.44 654.836 266.352 656.18 267.536C657.556 268.72 658.612 270.128 659.348 271.76C660.084 273.392 660.42 275.184 660.356 277.136L660.308 279.248H635.876L634.772 274.112H652.58L651.668 275.552V274.688C651.604 274.016 651.3 273.44 650.756 272.96C650.212 272.448 649.492 272.048 648.596 271.76C647.7 271.472 646.676 271.328 645.524 271.328C644.276 271.328 643.14 271.52 642.116 271.904C641.092 272.256 640.276 272.816 639.668 273.584C639.06 274.32 638.756 275.248 638.756 276.368C638.756 277.52 639.124 278.56 639.86 279.488C640.596 280.416 641.652 281.168 643.028 281.744C644.436 282.288 646.132 282.56 648.116 282.56C649.94 282.56 651.396 282.384 652.484 282.032C653.604 281.648 654.468 281.296 655.076 280.976L659.3 286.928C657.988 287.792 656.644 288.48 655.268 288.992C653.924 289.504 652.548 289.872 651.14 290.096C649.732 290.352 648.244 290.48 646.676 290.48ZM667.202 290V254.48H676.946V290H667.202ZM690.991 290.528C689.103 290.528 687.663 290.112 686.671 289.28C685.679 288.416 685.183 287.232 685.183 285.728C685.183 284.416 685.679 283.296 686.671 282.368C687.695 281.408 689.135 280.928 690.991 280.928C692.911 280.928 694.367 281.36 695.359 282.224C696.351 283.056 696.847 284.224 696.847 285.728C696.847 287.04 696.335 288.176 695.311 289.136C694.287 290.064 692.847 290.528 690.991 290.528ZM718.322 290.48C715.122 290.48 712.306 289.904 709.874 288.752C707.442 287.6 705.538 286.016 704.162 284C702.786 281.984 702.098 279.696 702.098 277.136C702.098 274.544 702.77 272.256 704.114 270.272C705.49 268.256 707.346 266.672 709.682 265.52C712.05 264.368 714.722 263.792 717.698 263.792C720.45 263.792 722.978 264.128 725.282 264.8C727.618 265.472 729.634 266.464 731.33 267.776L726.002 274.448C725.426 274 724.754 273.6 723.986 273.248C723.218 272.896 722.402 272.624 721.538 272.432C720.674 272.208 719.73 272.096 718.706 272.096C717.298 272.096 716.082 272.304 715.058 272.72C714.066 273.136 713.298 273.712 712.754 274.448C712.242 275.184 711.986 276.064 711.986 277.088C711.986 278.08 712.242 278.96 712.754 279.728C713.266 280.496 714.018 281.088 715.01 281.504C716.034 281.92 717.234 282.128 718.61 282.128C719.858 282.128 720.946 282.048 721.874 281.888C722.802 281.696 723.602 281.472 724.274 281.216C724.978 280.928 725.57 280.624 726.05 280.304L731.282 286.928C729.586 288.016 727.666 288.88 725.522 289.52C723.378 290.16 720.978 290.48 718.322 290.48ZM751.407 290.48C748.111 290.48 745.183 289.92 742.623 288.8C740.095 287.648 738.111 286.064 736.671 284.048C735.231 282.032 734.511 279.728 734.511 277.136C734.511 274.512 735.231 272.208 736.671 270.224C738.111 268.208 740.095 266.64 742.623 265.52C745.183 264.368 748.111 263.792 751.407 263.792C754.703 263.792 757.615 264.368 760.143 265.52C762.671 266.64 764.639 268.208 766.047 270.224C767.487 272.208 768.207 274.512 768.207 277.136C768.207 279.728 767.487 282.032 766.047 284.048C764.639 286.064 762.671 287.648 760.143 288.8C757.615 289.92 754.703 290.48 751.407 290.48ZM751.455 282.32C752.703 282.32 753.855 282.112 754.911 281.696C755.999 281.248 756.847 280.64 757.455 279.872C758.095 279.072 758.399 278.16 758.367 277.136C758.399 276.08 758.095 275.168 757.455 274.4C756.847 273.6 755.999 272.992 754.911 272.576C753.855 272.128 752.703 271.904 751.455 271.904C750.143 271.904 748.927 272.128 747.807 272.576C746.719 272.992 745.871 273.6 745.263 274.4C744.655 275.168 744.351 276.08 744.351 277.136C744.351 278.16 744.655 279.072 745.263 279.872C745.871 280.64 746.719 281.248 747.807 281.696C748.927 282.112 750.143 282.32 751.455 282.32ZM775.053 290V264.32H784.077L784.461 269.6L782.733 268.592C783.405 267.856 784.125 267.2 784.893 266.624C785.661 266.016 786.477 265.504 787.341 265.088C788.237 264.672 789.213 264.352 790.269 264.128C791.325 263.904 792.461 263.792 793.677 263.792C795.021 263.792 796.269 263.968 797.421 264.32C798.605 264.672 799.661 265.312 800.589 266.24C801.549 267.136 802.301 268.416 802.845 270.08L800.733 269.936L801.165 269.264C801.805 268.464 802.525 267.728 803.325 267.056C804.157 266.384 805.053 265.808 806.013 265.328C807.005 264.848 808.061 264.48 809.181 264.224C810.333 263.936 811.549 263.792 812.829 263.792C815.453 263.792 817.565 264.272 819.165 265.232C820.797 266.16 821.981 267.44 822.717 269.072C823.485 270.672 823.869 272.464 823.869 274.448V290H814.125V275.6C814.125 274.864 813.981 274.208 813.693 273.632C813.405 273.056 812.957 272.592 812.349 272.24C811.773 271.888 811.037 271.712 810.141 271.712C809.309 271.712 808.541 271.84 807.837 272.096C807.133 272.32 806.509 272.656 805.965 273.104C805.453 273.552 805.053 274.08 804.765 274.688C804.477 275.264 804.333 275.888 804.333 276.56V290H794.589V275.6C794.589 274.864 794.413 274.208 794.061 273.632C793.741 273.024 793.245 272.56 792.573 272.24C791.901 271.888 791.005 271.712 789.885 271.712C789.117 271.712 788.413 271.856 787.773 272.144C787.165 272.432 786.637 272.8 786.189 273.248C785.741 273.696 785.389 274.16 785.133 274.64C784.909 275.12 784.797 275.568 784.797 275.984V290H775.053Z" fill="black"/>
<path d="M440.295 382L434.311 365.296L436.967 365.264L441.543 378.96L440.775 378.896L445.959 367.76H447.655L452.871 378.928L452.071 378.992L456.967 365.296H459.495L453.319 382H451.911L446.151 369.424L447.463 369.328L441.767 382H440.295ZM472.057 382.32C470.201 382.32 468.537 381.957 467.065 381.232C465.615 380.507 464.484 379.493 463.673 378.192C462.863 376.891 462.457 375.397 462.457 373.712C462.457 372.368 462.692 371.173 463.161 370.128C463.631 369.061 464.281 368.133 465.113 367.344C465.967 366.555 466.959 365.947 468.089 365.52C469.241 365.093 470.468 364.88 471.769 364.88C473.028 364.88 474.18 365.083 475.225 365.488C476.271 365.872 477.177 366.427 477.945 367.152C478.713 367.877 479.3 368.731 479.705 369.712C480.111 370.693 480.292 371.781 480.249 372.976L480.217 374.224H464.409L464.057 372.208H478.393L477.817 372.624V371.856C477.775 371.088 477.497 370.352 476.985 369.648C476.473 368.923 475.769 368.336 474.873 367.888C473.977 367.419 472.943 367.184 471.769 367.184C470.447 367.184 469.263 367.419 468.217 367.888C467.193 368.336 466.383 369.029 465.785 369.968C465.209 370.907 464.921 372.101 464.921 373.552C464.921 374.875 465.231 376.016 465.849 376.976C466.468 377.936 467.332 378.683 468.441 379.216C469.572 379.749 470.916 380.016 472.473 380.016C473.625 380.016 474.66 379.856 475.577 379.536C476.495 379.216 477.423 378.715 478.361 378.032L479.513 379.824C478.959 380.272 478.297 380.688 477.529 381.072C476.761 381.456 475.919 381.765 475.001 382C474.084 382.213 473.103 382.32 472.057 382.32ZM496.096 382.32C495.178 382.32 494.304 382.192 493.472 381.936C492.64 381.68 491.882 381.339 491.2 380.912C490.517 380.464 489.941 379.952 489.472 379.376C489.002 378.8 488.672 378.203 488.48 377.584L489.376 377.712L489.28 381.968H486.911V358.32H489.312V369.296L488.64 369.52C488.853 368.901 489.184 368.315 489.632 367.76C490.08 367.205 490.634 366.715 491.296 366.288C491.978 365.861 492.725 365.531 493.536 365.296C494.368 365.04 495.242 364.912 496.16 364.912C497.802 364.912 499.274 365.285 500.576 366.032C501.898 366.779 502.944 367.813 503.712 369.136C504.48 370.437 504.864 371.931 504.864 373.616C504.864 375.28 504.48 376.773 503.712 378.096C502.965 379.397 501.93 380.432 500.608 381.2C499.285 381.947 497.781 382.32 496.096 382.32ZM495.84 380.016C497.12 380.016 498.25 379.739 499.232 379.184C500.234 378.608 501.024 377.84 501.6 376.88C502.176 375.92 502.464 374.832 502.464 373.616C502.464 372.357 502.176 371.248 501.6 370.288C501.045 369.328 500.266 368.571 499.264 368.016C498.261 367.461 497.12 367.184 495.84 367.184C494.517 367.184 493.344 367.461 492.32 368.016C491.317 368.571 490.528 369.328 489.952 370.288C489.376 371.248 489.088 372.347 489.088 373.584C489.088 374.821 489.376 375.931 489.952 376.912C490.549 377.872 491.349 378.629 492.352 379.184C493.376 379.739 494.538 380.016 495.84 380.016ZM517.14 382.32C515.498 382.32 514.004 382.053 512.66 381.52C511.338 380.987 510.271 380.24 509.46 379.28L511.156 377.744C511.882 378.555 512.746 379.173 513.748 379.6C514.772 380.005 515.903 380.208 517.14 380.208C517.738 380.208 518.314 380.155 518.868 380.048C519.423 379.941 519.914 379.781 520.34 379.568C520.767 379.355 521.098 379.088 521.332 378.768C521.588 378.427 521.716 378.032 521.716 377.584C521.716 376.859 521.29 376.261 520.436 375.792C520.01 375.6 519.476 375.408 518.836 375.216C518.218 375.024 517.492 374.843 516.66 374.672C515.38 374.373 514.282 374.075 513.364 373.776C512.447 373.456 511.722 373.061 511.188 372.592C510.783 372.208 510.474 371.781 510.26 371.312C510.068 370.821 509.972 370.277 509.972 369.68C509.972 368.997 510.132 368.368 510.452 367.792C510.794 367.195 511.274 366.683 511.892 366.256C512.511 365.829 513.236 365.499 514.068 365.264C514.9 365.029 515.796 364.912 516.756 364.912C517.631 364.912 518.516 365.019 519.412 365.232C520.33 365.445 521.183 365.755 521.972 366.16C522.783 366.565 523.466 367.056 524.02 367.632L522.612 369.264C522.1 368.837 521.535 368.453 520.916 368.112C520.298 367.749 519.636 367.472 518.932 367.28C518.25 367.088 517.556 366.992 516.852 366.992C516.276 366.992 515.711 367.045 515.156 367.152C514.623 367.259 514.154 367.429 513.748 367.664C513.364 367.877 513.044 368.144 512.788 368.464C512.554 368.784 512.436 369.157 512.436 369.584C512.415 369.925 512.479 370.224 512.628 370.48C512.799 370.715 513.023 370.928 513.3 371.12C513.706 371.397 514.239 371.632 514.9 371.824C515.583 372.016 516.404 372.219 517.364 372.432C518.431 372.645 519.37 372.88 520.18 373.136C521.012 373.392 521.716 373.712 522.292 374.096C522.89 374.48 523.338 374.939 523.636 375.472C523.956 376.005 524.116 376.624 524.116 377.328C524.116 378.331 523.818 379.205 523.22 379.952C522.623 380.699 521.802 381.285 520.756 381.712C519.711 382.117 518.506 382.32 517.14 382.32ZM531.171 382V365.296H533.603V382H531.171ZM532.355 361.616C531.779 361.616 531.331 361.467 531.011 361.168C530.691 360.848 530.531 360.411 530.531 359.856C530.531 359.344 530.691 358.928 531.011 358.608C531.352 358.267 531.8 358.096 532.355 358.096C532.952 358.096 533.4 358.256 533.699 358.576C534.019 358.875 534.179 359.301 534.179 359.856C534.179 360.368 534.019 360.795 533.699 361.136C533.379 361.456 532.931 361.616 532.355 361.616ZM544.876 382V360.528H547.308V382H544.876ZM540.299 367.6V365.296H552.492V367.6H540.299ZM566.339 382.32C564.483 382.32 562.819 381.957 561.347 381.232C559.896 380.507 558.765 379.493 557.955 378.192C557.144 376.891 556.739 375.397 556.739 373.712C556.739 372.368 556.973 371.173 557.443 370.128C557.912 369.061 558.563 368.133 559.395 367.344C560.248 366.555 561.24 365.947 562.371 365.52C563.523 365.093 564.749 364.88 566.051 364.88C567.309 364.88 568.461 365.083 569.507 365.488C570.552 365.872 571.459 366.427 572.227 367.152C572.995 367.877 573.581 368.731 573.987 369.712C574.392 370.693 574.573 371.781 574.531 372.976L574.499 374.224H558.691L558.339 372.208H572.675L572.099 372.624V371.856C572.056 371.088 571.779 370.352 571.267 369.648C570.755 368.923 570.051 368.336 569.155 367.888C568.259 367.419 567.224 367.184 566.051 367.184C564.728 367.184 563.544 367.419 562.499 367.888C561.475 368.336 560.664 369.029 560.067 369.968C559.491 370.907 559.203 372.101 559.203 373.552C559.203 374.875 559.512 376.016 560.131 376.976C560.749 377.936 561.613 378.683 562.723 379.216C563.853 379.749 565.197 380.016 566.755 380.016C567.907 380.016 568.941 379.856 569.859 379.536C570.776 379.216 571.704 378.715 572.642 378.032L573.795 379.824C573.24 380.272 572.579 380.688 571.811 381.072C571.043 381.456 570.2 381.765 569.283 382C568.365 382.213 567.384 382.32 566.339 382.32Z" fill="black"/>
<path d="M391.814 181V162.472C391.814 161.491 392.027 160.627 392.454 159.88C392.88 159.112 393.488 158.515 394.278 158.088C395.067 157.64 395.984 157.416 397.03 157.416C397.84 157.416 398.566 157.544 399.206 157.8C399.846 158.056 400.358 158.387 400.742 158.792L399.91 160.776C399.526 160.435 399.088 160.168 398.598 159.976C398.107 159.763 397.627 159.656 397.158 159.656C396.454 159.656 395.878 159.784 395.43 160.04C394.982 160.275 394.651 160.605 394.438 161.032C394.246 161.459 394.15 161.939 394.15 162.472V181H393.094C392.88 181 392.667 181 392.454 181C392.24 181 392.027 181 391.814 181ZM388.326 166.728V164.52H399.782V166.728H388.326ZM415.58 181.32C414.663 181.32 413.788 181.192 412.956 180.936C412.124 180.68 411.367 180.339 410.684 179.912C410.001 179.464 409.425 178.952 408.956 178.376C408.487 177.8 408.156 177.203 407.964 176.584L408.86 176.712L408.764 180.968H406.396V157.32H408.796V168.296L408.124 168.52C408.337 167.901 408.668 167.315 409.116 166.76C409.564 166.205 410.119 165.715 410.78 165.288C411.463 164.861 412.209 164.531 413.02 164.296C413.852 164.04 414.727 163.912 415.644 163.912C417.287 163.912 418.759 164.285 420.06 165.032C421.383 165.779 422.428 166.813 423.196 168.136C423.964 169.437 424.348 170.931 424.348 172.616C424.348 174.28 423.964 175.773 423.196 177.096C422.449 178.397 421.415 179.432 420.092 180.2C418.769 180.947 417.265 181.32 415.58 181.32ZM415.324 179.016C416.604 179.016 417.735 178.739 418.716 178.184C419.719 177.608 420.508 176.84 421.084 175.88C421.66 174.92 421.948 173.832 421.948 172.616C421.948 171.357 421.66 170.248 421.084 169.288C420.529 168.328 419.751 167.571 418.748 167.016C417.745 166.461 416.604 166.184 415.324 166.184C414.001 166.184 412.828 166.461 411.804 167.016C410.801 167.571 410.012 168.328 409.436 169.288C408.86 170.248 408.572 171.347 408.572 172.584C408.572 173.821 408.86 174.931 409.436 175.912C410.033 176.872 410.833 177.629 411.836 178.184C412.86 178.739 414.023 179.016 415.324 179.016ZM427.479 184.808L440.471 158.6H443.191L430.231 184.808H427.479ZM450.655 181V164.296H453.087V181H450.655ZM451.839 160.616C451.263 160.616 450.815 160.467 450.495 160.168C450.175 159.848 450.015 159.411 450.015 158.856C450.015 158.344 450.175 157.928 450.495 157.608C450.836 157.267 451.284 157.096 451.839 157.096C452.436 157.096 452.884 157.256 453.183 157.576C453.503 157.875 453.663 158.301 453.663 158.856C453.663 159.368 453.503 159.795 453.183 160.136C452.863 160.456 452.415 160.616 451.839 160.616ZM469.576 188.36C468.083 188.36 466.739 188.157 465.544 187.752C464.371 187.368 463.389 186.899 462.6 186.344L463.56 184.264C464.008 184.584 464.541 184.883 465.16 185.16C465.779 185.437 466.461 185.661 467.208 185.832C467.976 186.024 468.787 186.12 469.64 186.12C470.899 186.12 471.997 185.875 472.936 185.384C473.875 184.915 474.6 184.2 475.112 183.24C475.624 182.28 475.88 181.075 475.88 179.624V176.84L476.296 176.744C476.04 177.576 475.539 178.344 474.792 179.048C474.067 179.731 473.171 180.275 472.104 180.68C471.037 181.085 469.896 181.288 468.68 181.288C466.995 181.288 465.501 180.915 464.2 180.168C462.899 179.421 461.864 178.397 461.096 177.096C460.349 175.773 459.976 174.28 459.976 172.616C459.976 170.931 460.36 169.437 461.128 168.136C461.917 166.835 462.973 165.811 464.296 165.064C465.619 164.296 467.123 163.912 468.808 163.912C469.469 163.912 470.131 163.987 470.792 164.136C471.475 164.285 472.125 164.499 472.744 164.776C473.363 165.053 473.928 165.384 474.44 165.768C474.952 166.152 475.389 166.589 475.752 167.08C476.115 167.549 476.36 168.04 476.488 168.552L475.816 168.456L475.88 164.296H478.312V179.464C478.312 180.957 478.088 182.248 477.64 183.336C477.192 184.445 476.573 185.373 475.784 186.12C474.995 186.867 474.067 187.421 473 187.784C471.933 188.168 470.792 188.36 469.576 188.36ZM469.224 179.016C470.547 179.016 471.709 178.739 472.712 178.184C473.736 177.629 474.536 176.872 475.112 175.912C475.688 174.952 475.976 173.853 475.976 172.616C475.955 171.357 475.656 170.248 475.08 169.288C474.504 168.307 473.704 167.549 472.68 167.016C471.677 166.461 470.525 166.184 469.224 166.184C467.923 166.184 466.76 166.461 465.736 167.016C464.733 167.571 463.933 168.339 463.336 169.32C462.76 170.28 462.472 171.368 462.472 172.584C462.472 173.821 462.76 174.931 463.336 175.912C463.912 176.872 464.701 177.629 465.704 178.184C466.728 178.739 467.901 179.016 469.224 179.016Z" fill="black"/>
<path d="M227 317V333H826V317" stroke="black" stroke-width="6"/>
<path d="M681 230L681 214L178 214L178 230" stroke="black" stroke-width="6"/>
<path d="M507 335L507 356" stroke="black" stroke-width="6"/>
<path d="M434 194L434 214" stroke="black" stroke-width="6"/>
<path d="M892.425 62.9662L888.142 55.523C879.714 40.8728 857.326 46.8639 857.341 63.7659L857.348 72.3531C857.35 74.7859 854.931 76.4788 852.646 75.6433L844.581 72.6941C828.707 66.8894 815.408 85.8694 826.284 98.8075L831.81 105.381C833.375 107.243 832.61 110.095 830.322 110.924L822.249 113.849C806.357 119.606 808.37 142.693 825.018 145.614L833.476 147.098C835.872 147.518 837.119 150.194 835.899 152.3L831.595 159.73C823.122 174.355 839.504 190.747 854.134 182.284L861.567 177.983C863.673 176.765 866.349 178.014 866.767 180.41L868.246 188.869C871.156 205.519 894.242 207.546 900.009 191.659L902.939 183.587C903.769 181.3 906.622 180.536 908.483 182.103L915.053 187.633C927.984 198.517 946.973 185.23 941.178 169.352L938.234 161.285C937.4 159 939.094 156.582 941.527 156.585L950.114 156.598C967.016 156.624 973.022 134.24 958.377 125.802L950.936 121.515C948.828 120.3 948.572 117.358 950.438 115.797L957.024 110.288C969.988 99.4427 960.201 78.4356 943.558 81.385L935.103 82.8836C932.707 83.3081 930.62 81.2196 931.046 78.8243L932.55 70.3698C935.51 53.729 914.509 43.9281 903.656 56.8852L898.142 63.4682C896.58 65.3332 893.638 65.0749 892.425 62.9662Z" fill="#FF4911" stroke="black" stroke-width="13"/>
<defs>
<filter id="filter0_d_109_4" x="0" y="115" width="899" height="392" filterUnits="userSpaceOnUse" color-interpolation-filters="sRGB">
<feFlood flood-opacity="0" result="BackgroundImageFix"/>
<feColorMatrix in="SourceAlpha" type="matrix" values="0 0 0 0 0 0 0 0 0 0 0 0 0 0 0 0 0 0 127 0" result="hardAlpha"/>
<feOffset dx="-10" dy="13"/>
<feComposite in2="hardAlpha" operator="out"/>
<feColorMatrix type="matrix" values="0 0 0 0 0 0 0 0 0 0 0 0 0 0 0 0 0 0 1 0"/>
<feBlend mode="normal" in2="BackgroundImageFix" result="effect1_dropShadow_109_4"/>
<feBlend mode="normal" in="SourceGraphic" in2="effect1_dropShadow_109_4" result="shape"/>
</filter>
</defs>
</svg>
