<svg width="171" height="152" viewBox="0 0 171 152" fill="none" xmlns="http://www.w3.org/2000/svg">
<path d="M72.2654 138.255L72.2662 138.256C75.8477 141.622 80.5782 143.5 85.5 143.5C90.4218 143.5 95.1523 141.622 98.7338 138.256L98.7346 138.255L147.077 92.7987C156.94 83.5509 162.5 70.6007 162.5 57.0878V55.5247C162.5 32.5795 146.032 12.9374 123.46 9.1429L123.458 9.14257C109.797 6.84936 95.9249 10.7693 85.5 19.6724C75.0751 10.7693 61.2028 6.84936 47.5417 9.14257L47.5397 9.1429C24.9676 12.9374 8.5 32.5795 8.5 55.5247V57.0878C8.5 70.5995 14.0587 83.5487 23.9204 92.7963C23.9212 92.7971 23.922 92.7979 23.9229 92.7987L72.2654 138.255Z" fill="#FF00F5" stroke="black" stroke-width="17"/>
</svg>
