<svg width="123" height="152" viewBox="0 0 123 152" fill="none" xmlns="http://www.w3.org/2000/svg">
<path d="M13.4085 78.5943C13.0929 83.8306 15.3431 88.813 19.2909 92.042L11.6507 110.315H11.5996L9.42982 115.572C7.82701 119.456 8.24465 124.185 11.1161 127.794C13.7835 131.148 18.0533 132.915 22.3936 132.302L22.4251 132.298L22.4566 132.293L29.909 131.184L34.2968 137.94C36.786 141.817 41.1636 143.838 45.5545 143.464C50.0796 143.078 53.9825 140.209 55.7238 136.035C55.7256 136.031 55.7273 136.027 55.7291 136.022L61.0137 123.4L66.3039 136.021L66.31 136.036L66.3161 136.051C68.0306 140.099 71.8703 143.049 76.4692 143.44C80.8581 143.815 85.2338 141.796 87.7235 137.923L92.1092 131.183L99.5387 132.289C103.912 132.963 108.34 131.192 111.034 127.631C113.641 124.186 114.255 119.598 112.594 115.572L112.585 115.551L112.576 115.53L102.726 92.0248C106.678 88.7959 108.931 83.8106 108.615 78.5712L108.615 78.5676L108.336 73.9623L110.869 70.0973C110.872 70.0925 110.875 70.0877 110.878 70.0829C114.415 64.711 114.413 57.7182 110.871 52.3486C110.87 52.3474 110.87 52.3462 110.869 52.3451L108.336 48.5019L108.615 43.8978L108.615 43.8942C109.003 37.4676 105.525 31.4233 99.7874 28.5337C99.7844 28.5322 99.7814 28.5307 99.7783 28.5292L95.6404 26.4376L93.5793 22.3136C93.578 22.3111 93.5768 22.3085 93.5755 22.306C90.7186 16.5673 84.6986 13.0248 78.2322 13.419L78.2286 13.4192L73.6922 13.6976L69.8829 11.1795C64.5173 7.60919 57.5193 7.60682 52.1515 11.1724L48.3099 13.6977L43.7722 13.4192L43.7686 13.419C37.3028 13.0249 31.2834 16.5666 28.4261 22.3043L26.3373 26.4838L22.2364 28.5567C16.4988 31.4463 13.0212 37.4906 13.4085 43.9173L13.4087 43.9209L13.6882 48.5268L11.1653 52.3869C7.6373 57.7496 7.635 64.7263 11.1584 70.0911L13.6883 73.9836L13.4087 78.5907L13.4085 78.5943ZM19.6713 99.0765L19.6752 99.0845L19.668 99.07L19.6713 99.0765ZM95.7754 26.7077L95.7714 26.6997C95.7739 26.7046 95.7763 26.7096 95.7788 26.7145L95.7754 26.7077ZM67.9481 54.2003C69.7975 56.0603 70.8452 58.5932 70.8452 61.2442C70.8452 63.8953 69.7975 66.4282 67.9481 68.2882C66.1002 70.1465 63.6042 71.1817 61.0119 71.1817C58.4195 71.1817 55.9235 70.1465 54.0756 68.2882C52.2262 66.4282 51.1785 63.8953 51.1785 61.2442C51.1785 58.5932 52.2262 56.0603 54.0756 54.2003C55.9235 52.342 58.4195 51.3067 61.0119 51.3067C63.6042 51.3067 66.1002 52.342 67.9481 54.2003Z" fill="#C4A1FF" stroke="black" stroke-width="17"/>
</svg>
