<svg width="115" height="115" viewBox="0 0 115 115" fill="none" xmlns="http://www.w3.org/2000/svg">
<path d="M56.7852 11.9398C51.4401 1.21922 35.2373 5.55515 35.961 17.5126L36.4293 25.25C36.4744 25.995 35.7169 26.5251 35.0324 26.2274L27.9238 23.1365C16.9381 18.3599 7.31317 32.0963 15.5536 40.791L20.8859 46.4172C21.3993 46.959 21.1597 47.8519 20.4441 48.0639L13.0118 50.2655C1.52585 53.6678 2.98232 70.3773 14.8838 71.741L22.5849 72.6234C23.3265 72.7083 23.7169 73.5464 23.305 74.1688L19.0266 80.6327C12.4149 90.622 24.2713 102.486 34.2649 95.8806L40.7315 91.6063C41.3542 91.1947 42.1919 91.5858 42.2764 92.3274L43.154 100.029C44.5101 111.931 61.2187 113.399 64.6283 101.915L66.8346 94.4838C67.047 93.7682 67.9401 93.5292 68.4815 94.043L74.1043 99.3788C82.7938 107.625 96.5364 98.0085 91.7666 87.0198L88.6802 79.9093C88.383 79.2245 88.9136 78.4674 89.6586 78.513L97.3957 78.9862C109.353 79.7174 113.699 63.5175 102.982 58.1655L96.0467 54.7024C95.3789 54.3689 95.2986 53.4479 95.8986 53.0039L102.13 48.3931C111.759 41.2675 104.676 26.0639 93.0256 28.853L85.4871 30.6577C84.7612 30.8315 84.1076 30.1776 84.2819 29.4518L86.0914 21.9144C88.8879 10.2662 73.6888 3.17276 66.5571 12.7979L61.9423 19.0261C61.498 19.6258 60.577 19.5449 60.2439 18.8769L56.7852 11.9398Z" fill="#FF4911" stroke="black" stroke-width="10"/>
</svg>
