<svg width="150" height="153" viewBox="0 0 150 153" fill="none" xmlns="http://www.w3.org/2000/svg">
<path d="M96.9699 15.3866C96.2316 4.75624 82.3217 1.28108 76.6706 10.3151L56.8856 41.9441C56.6559 42.3114 56.2158 42.489 55.7955 42.384L19.6006 33.3413C9.2624 30.7585 1.6589 42.9138 8.50453 51.0799L32.4716 79.6704C32.7499 80.0024 32.7828 80.4759 32.5531 80.8432L12.7681 112.472C7.11701 121.506 16.3278 132.494 26.2097 128.507L60.8071 114.548C61.2089 114.386 61.6693 114.501 61.9476 114.833L85.9147 143.423C92.7603 151.589 106.056 146.225 105.318 135.594L102.733 98.3766C102.703 97.9444 102.955 97.5421 103.357 97.38L137.954 83.4209C147.836 79.4338 146.843 65.1307 136.505 62.5479L100.31 53.5052C99.8895 53.4002 99.5846 53.0365 99.5546 52.6043L96.9699 15.3866Z" fill="#FF00F5" stroke="black" stroke-width="10"/>
</svg>
