<svg width="25" height="31" viewBox="0 0 25 31" fill="none" xmlns="http://www.w3.org/2000/svg">
<path d="M24.5 14.3059H22.0991V16.6932H24.5V14.3059Z" fill="#3B2714"/>
<path d="M24.5 11.9229H22.0991V14.3056H24.5V11.9229Z" fill="#3B2714"/>
<path d="M22.0991 16.6931H19.6982V19.0759H22.0991V16.6931Z" fill="#3B2714"/>
<path d="M22.0991 14.3059H19.6982V16.6932H22.0991V14.3059Z" fill="#FBC70D"/>
<path d="M22.0991 11.9229H19.6982V14.3056H22.0991V11.9229Z" fill="#3B2714"/>
<path d="M19.6982 19.0759H17.2973V21.4587H19.6982V19.0759Z" fill="#3B2714"/>
<path d="M19.6982 16.6931H17.2973V19.0759H19.6982V16.6931Z" fill="#FBC70D"/>
<path d="M19.6982 14.3059H17.2973V16.6932H19.6982V14.3059Z" fill="#FBC70D"/>
<path d="M19.6982 11.9229H17.2973V14.3056H19.6982V11.9229Z" fill="#3B2714"/>
<path d="M19.6982 4.77014H17.2973V7.15292H19.6982V4.77014Z" fill="#3B2714"/>
<path d="M19.6982 2.38708H17.2973V4.76987H19.6982V2.38708Z" fill="#3B2714"/>
<path d="M17.2973 21.4584H14.9009V23.8412H17.2973V21.4584Z" fill="#3B2714"/>
<path d="M17.2973 19.0759H14.9009V21.4587H17.2973V19.0759Z" fill="#FBC70D"/>
<path d="M17.2973 16.6931H14.9009V19.0759H17.2973V16.6931Z" fill="#FBC70D"/>
<path d="M17.2973 14.3059H14.9009V16.6932H17.2973V14.3059Z" fill="#FBC70D"/>
<path d="M17.2973 11.9229H14.9009V14.3056H17.2973V11.9229Z" fill="#FBC70D"/>
<path d="M17.2973 9.54016H14.9009V11.9229H17.2973V9.54016Z" fill="#3B2714"/>
<path d="M17.2973 7.15295H14.9009V9.54027H17.2973V7.15295Z" fill="#3B2714"/>
<path d="M17.2973 4.77014H14.9009V7.15292H17.2973V4.77014Z" fill="#FBC70D"/>
<path d="M17.2973 2.38708H14.9009V4.76987H17.2973V2.38708Z" fill="#FBC70D"/>
<path d="M17.2973 0H14.9009V2.38731H17.2973V0Z" fill="#3B2714"/>
<path d="M14.9009 23.8412H12.5V26.2285H14.9009V23.8412Z" fill="#3B2714"/>
<path d="M14.9009 21.4584H12.5V23.8412H14.9009V21.4584Z" fill="#FBC70D"/>
<path d="M14.9009 19.0759H12.5V21.4587H14.9009V19.0759Z" fill="#FBC70D"/>
<path d="M14.9009 16.6931H12.5V19.0759H14.9009V16.6931Z" fill="#FBC70D"/>
<path d="M14.9009 14.3059H12.5V16.6932H14.9009V14.3059Z" fill="#FBC70D"/>
<path d="M14.9009 11.9229H12.5V14.3056H14.9009V11.9229Z" fill="#FBC70D"/>
<path d="M14.9009 9.54016H12.5V11.9229H14.9009V9.54016Z" fill="#FBC70D"/>
<path d="M14.9009 7.15295H12.5V9.54027H14.9009V7.15295Z" fill="#FBC70D"/>
<path d="M14.9009 4.77014H12.5V7.15292H14.9009V4.77014Z" fill="#FBC70D"/>
<path d="M14.9009 2.38708H12.5V4.76987H14.9009V2.38708Z" fill="#FBC70D"/>
<path d="M14.9009 0H12.5V2.38731H14.9009V0Z" fill="#3B2714"/>
<path d="M12.5 26.2285H10.0991V28.6113H12.5V26.2285Z" fill="#3B2714"/>
<path d="M12.5 23.8412H10.0991V26.2285H12.5V23.8412Z" fill="#FBC70D"/>
<path d="M12.5 21.4584H10.0991V23.8412H12.5V21.4584Z" fill="#FBC70D"/>
<path d="M12.5 19.0759H10.0991V21.4587H12.5V19.0759Z" fill="#3B2714"/>
<path d="M12.5 16.6931H10.0991V19.0759H12.5V16.6931Z" fill="#3B2714"/>
<path d="M12.5 14.3059H10.0991V16.6932H12.5V14.3059Z" fill="#FBC70D"/>
<path d="M12.5 11.9229H10.0991V14.3056H12.5V11.9229Z" fill="#FBC70D"/>
<path d="M12.5 9.54016H10.0991V11.9229H12.5V9.54016Z" fill="#FBC70D"/>
<path d="M12.5 7.15295H10.0991V9.54027H12.5V7.15295Z" fill="#FBC70D"/>
<path d="M12.5 4.77014H10.0991V7.15292H12.5V4.77014Z" fill="#FBC70D"/>
<path d="M12.5 2.38708H10.0991V4.76987H12.5V2.38708Z" fill="#FBC70D"/>
<path d="M12.5 0H10.0991V2.38731H12.5V0Z" fill="#3B2714"/>
<path d="M10.0991 28.6113H7.69821V30.9941H10.0991V28.6113Z" fill="#3B2714"/>
<path d="M10.0991 26.2285H7.69821V28.6113H10.0991V26.2285Z" fill="#FBC70D"/>
<path d="M10.0991 23.8412H7.69821V26.2285H10.0991V23.8412Z" fill="#3B2714"/>
<path d="M10.0991 21.4584H7.69821V23.8412H10.0991V21.4584Z" fill="#3B2714"/>
<path d="M10.0991 16.6931H7.69821V19.0759H10.0991V16.6931Z" fill="#3B2714"/>
<path d="M10.0991 14.3059H7.69821V16.6932H10.0991V14.3059Z" fill="#FBC70D"/>
<path d="M10.0991 11.9229H7.69821V14.3056H10.0991V11.9229Z" fill="#FBC70D"/>
<path d="M10.0991 9.54016H7.69821V11.9229H10.0991V9.54016Z" fill="#FBC70D"/>
<path d="M10.0991 7.15295H7.69821V9.54027H10.0991V7.15295Z" fill="#FBC70D"/>
<path d="M10.0991 4.77014H7.69821V7.15292H10.0991V4.77014Z" fill="#FBC70D"/>
<path d="M10.0991 2.38708H7.69821V4.76987H10.0991V2.38708Z" fill="#FBC70D"/>
<path d="M10.0991 0H7.69821V2.38731H10.0991V0Z" fill="#3B2714"/>
<path d="M7.69817 28.6113H5.29727V30.9941H7.69817V28.6113Z" fill="#3B2714"/>
<path d="M7.69817 26.2285H5.29727V28.6113H7.69817V26.2285Z" fill="#3B2714"/>
<path d="M7.69817 16.6931H5.29727V19.0759H7.69817V16.6931Z" fill="#3B2714"/>
<path d="M7.69817 14.3059H5.29727V16.6932H7.69817V14.3059Z" fill="#FBC70D"/>
<path d="M7.69817 11.9229H5.29727V14.3056H7.69817V11.9229Z" fill="#FBC70D"/>
<path d="M7.69817 9.54016H5.29727V11.9229H7.69817V9.54016Z" fill="#FBC70D"/>
<path d="M7.69817 7.15295H5.29727V9.54027H7.69817V7.15295Z" fill="#FBC70D"/>
<path d="M7.69817 4.77014H5.29727V7.15292H7.69817V4.77014Z" fill="#3B2714"/>
<path d="M7.69817 2.38708H5.29727V4.76987H7.69817V2.38708Z" fill="#3B2714"/>
<path d="M5.2973 16.6931H2.90091V19.0759H5.2973V16.6931Z" fill="#3B2714"/>
<path d="M5.2973 14.3059H2.90091V16.6932H5.2973V14.3059Z" fill="#FBC70D"/>
<path d="M5.2973 11.9229H2.90091V14.3056H5.2973V11.9229Z" fill="#FBC70D"/>
<path d="M5.2973 9.54016H2.90091V11.9229H5.2973V9.54016Z" fill="#3B2714"/>
<path d="M5.2973 7.15295H2.90091V9.54027H5.2973V7.15295Z" fill="#3B2714"/>
<path d="M2.9009 14.3059H0.5V16.6932H2.9009V14.3059Z" fill="#3B2714"/>
<path d="M2.9009 11.9229H0.5V14.3056H2.9009V11.9229Z" fill="#3B2714"/>
</svg>
