<svg width="35" height="34" viewBox="0 0 35 34" fill="none" xmlns="http://www.w3.org/2000/svg">
<path d="M31.8046 8.49292H28.9682V11.3293H31.8046V8.49292Z" fill="#F0916C"/>
<path d="M31.8046 5.66162H28.9682V8.4928H31.8046V5.66162Z" fill="#FFAF7C"/>
<path d="M31.8046 2.82532H28.9682V5.66166H31.8046V2.82532Z" fill="#F0916C"/>
<path d="M28.9682 8.49292H26.137V11.3293H28.9682V8.49292Z" fill="#FFAF7C"/>
<path d="M28.9682 5.66162H26.137V8.4928H28.9682V5.66162Z" fill="#FFD393"/>
<path d="M26.137 11.3291H23.3007V14.1603H26.137H28.9682V11.3291H26.137Z" fill="#F0916C"/>
<path d="M26.137 8.49292H23.3007V11.3293H26.137V8.49292Z" fill="#FFD393"/>
<path d="M26.137 5.66162H23.3007V8.4928H26.137V5.66162Z" fill="#FFD393"/>
<path d="M23.3007 11.3291H20.4695V14.1603H23.3007V11.3291Z" fill="#FFAF7C"/>
<path d="M23.3007 8.49292H20.4695V11.3293H23.3007V8.49292Z" fill="#FFD393"/>
<path d="M23.3007 5.66162H20.4695V8.4928H23.3007V5.66162Z" fill="#FFD393"/>
<path d="M20.4695 16.9966H17.6332V19.8278H20.4695V16.9966Z" fill="#A15242"/>
<path d="M20.4695 14.1604H17.6332V16.9967H20.4695V14.1604Z" fill="#C47565"/>
<path d="M17.6332 19.8279H14.802V22.6642H17.6332V19.8279Z" fill="#A15242"/>
<path d="M17.6332 16.9966H14.802V19.8278H17.6332V16.9966Z" fill="#C47565"/>
<path d="M17.6332 14.1604H14.802V16.9967H17.6332V14.1604Z" fill="#D48677"/>
<path d="M14.802 22.6643H11.9657V25.4955H14.802V22.6643Z" fill="#A15242"/>
<path d="M14.802 19.8279H11.9657V22.6642H14.802V19.8279Z" fill="#C47565"/>
<path d="M14.802 16.9966H11.9657V19.8278H14.802V16.9966Z" fill="#D48677"/>
<path d="M11.9657 25.4954H9.13448V28.3265H11.9657V25.4954Z" fill="#A15242"/>
<path d="M11.9657 22.6643H9.13448V25.4955H11.9657V22.6643Z" fill="#C47565"/>
<path d="M11.9657 19.8279H9.13448V22.6642H11.9657V19.8279Z" fill="#D48677"/>
<path d="M9.13449 28.3267H6.3033V31.163H9.13449V28.3267Z" fill="#A15242"/>
<path d="M9.13449 22.6643H6.3033V25.4955H9.13449V22.6643Z" fill="#D48677"/>
<path d="M6.30329 28.3267H3.46695V31.163H6.30329V28.3267Z" fill="#C47565"/>
<path d="M6.30329 25.4954H3.46695V28.3265H6.30329V25.4954Z" fill="#C47565"/>
<path d="M9.13449 25.4954H6.3033V28.3265H9.13449V25.4954Z" fill="#3B2714"/>
<path d="M31.8046 2.82532V5.66166V8.49284V11.3292H34.6358V8.49284V5.66166V2.82532H31.8046Z" fill="#3B2714"/>
<path d="M31.8046 11.3291H28.9682V14.1603H31.8046V11.3291Z" fill="#3B2714"/>
<path d="M23.3007 14.1604H20.4695V16.9967V19.8279H23.3007V16.9967H26.137H28.9682V14.1604H26.137H23.3007Z" fill="#3B2714"/>
<path d="M20.4695 19.8279H17.6332V22.6642H20.4695V19.8279Z" fill="#3B2714"/>
<path d="M17.6332 22.6643H14.802V25.4955H17.6332V22.6643Z" fill="#3B2714"/>
<path d="M14.802 25.4954H11.9657V28.3265H14.802V25.4954Z" fill="#3B2714"/>
<path d="M11.9657 28.3267H9.13448V31.163H11.9657V28.3267Z" fill="#3B2714"/>
<path d="M3.46695 31.1629V28.3265V25.4954H0.635773V28.3265V31.1629V33.9941H3.46695H6.30329H9.13448V31.1629H6.30329H3.46695Z" fill="#3B2714"/>
<path d="M6.30329 22.6643H3.46695V25.4955H6.30329V22.6643Z" fill="#3B2714"/>
<path d="M9.13449 19.8279H6.3033V22.6642H9.13449V19.8279Z" fill="#3B2714"/>
<path d="M11.9657 16.9966H9.13448V19.8278H11.9657V16.9966Z" fill="#3B2714"/>
<path d="M14.802 14.1604H11.9657V16.9967H14.802V14.1604Z" fill="#3B2714"/>
<path d="M20.4695 14.1603V11.3291V8.4928V5.66162H17.6332V8.4928V11.3291H14.802V14.1603H17.6332H20.4695Z" fill="#3B2714"/>
<path d="M26.137 5.66166H28.9682V2.82532H26.137H23.3007H20.4695V5.66166H23.3007H26.137Z" fill="#3B2714"/>
<path d="M31.8046 -0.00585938H28.9682V2.82534H31.8046V-0.00585938Z" fill="#3B2714"/>
</svg>
