<svg width="29" height="24" viewBox="0 0 29 24" fill="none" xmlns="http://www.w3.org/2000/svg">
<path d="M28.7781 10.9017H26.5809V13.0824H28.7781V10.9017Z" fill="#3B2714"/>
<path d="M28.7781 8.72095H26.5809V10.9017H28.7781V8.72095Z" fill="#3B2714"/>
<path d="M28.7781 6.54028H26.5809V8.72099H28.7781V6.54028Z" fill="#3B2714"/>
<path d="M28.7781 4.35535H26.5809V6.5402H28.7781V4.35535Z" fill="#3B2714"/>
<path d="M26.5809 13.0823H24.3836V15.2671H26.5809V13.0823Z" fill="#3B2714"/>
<path d="M26.5809 10.9017H24.3836V13.0824H26.5809V10.9017Z" fill="#C7C7C7"/>
<path d="M26.5809 8.72095H24.3836V10.9017H26.5809V8.72095Z" fill="#C7C7C7"/>
<path d="M26.5809 6.54028H24.3836V8.72099H26.5809V6.54028Z" fill="#C7C7C7"/>
<path d="M26.5809 4.35535H24.3836V6.5402H26.5809V4.35535Z" fill="white"/>
<path d="M26.5809 2.1748H24.3836V4.35551H26.5809V2.1748Z" fill="#3B2714"/>
<path d="M24.3836 21.8134H22.1863V23.9941H24.3836V21.8134Z" fill="#3B2714"/>
<path d="M24.3836 19.6285H22.1863V21.8134H24.3836V19.6285Z" fill="#3B2714"/>
<path d="M24.3836 17.4479H22.1863V19.6286H24.3836V17.4479Z" fill="#3B2714"/>
<path d="M24.3836 15.2672H22.1863V17.4479H24.3836V15.2672Z" fill="#3B2714"/>
<path d="M24.3836 13.0823H22.1863V15.2671H24.3836V13.0823Z" fill="#C7C7C7"/>
<path d="M24.3836 10.9017H22.1863V13.0824H24.3836V10.9017Z" fill="#C7C7C7"/>
<path d="M24.3836 8.72095H22.1863V10.9017H24.3836V8.72095Z" fill="white"/>
<path d="M24.3836 6.54028H22.1863V8.72099H24.3836V6.54028Z" fill="white"/>
<path d="M24.3836 4.35535H22.1863V6.5402H24.3836V4.35535Z" fill="white"/>
<path d="M24.3836 2.1748H22.1863V4.35551H24.3836V2.1748Z" fill="white"/>
<path d="M24.3836 -0.00598145H22.1863V2.17472H24.3836V-0.00598145Z" fill="#3B2714"/>
<path d="M22.1863 21.8134H19.9891V23.9941H22.1863V21.8134Z" fill="#3B2714"/>
<path d="M22.1863 19.6285H19.9891V21.8134H22.1863V19.6285Z" fill="#C7C7C7"/>
<path d="M22.1863 17.4479H19.9891V19.6286H22.1863V17.4479Z" fill="#C7C7C7"/>
<path d="M22.1863 15.2672H19.9891V17.4479H22.1863V15.2672Z" fill="#C7C7C7"/>
<path d="M22.1863 13.0823H19.9891V15.2671H22.1863V13.0823Z" fill="#C7C7C7"/>
<path d="M22.1863 10.9017H19.9891V13.0824H22.1863V10.9017Z" fill="white"/>
<path d="M22.1863 8.72095H19.9891V10.9017H22.1863V8.72095Z" fill="#3B2714"/>
<path d="M22.1863 6.54028H19.9891V8.72099H22.1863V6.54028Z" fill="white"/>
<path d="M22.1863 4.35535H19.9891V6.5402H22.1863V4.35535Z" fill="white"/>
<path d="M22.1863 2.1748H19.9891V4.35551H22.1863V2.1748Z" fill="white"/>
<path d="M22.1863 -0.00598145H19.9891V2.17472H22.1863V-0.00598145Z" fill="#3B2714"/>
<path d="M19.9891 19.6285H17.7959V21.8134H19.9891V19.6285Z" fill="#3B2714"/>
<path d="M19.9891 17.4479H17.7959V19.6286H19.9891V17.4479Z" fill="#C7C7C7"/>
<path d="M19.9891 15.2672H17.7959V17.4479H19.9891V15.2672Z" fill="white"/>
<path d="M19.9891 13.0823H17.7959V15.2671H19.9891V13.0823Z" fill="white"/>
<path d="M19.9891 10.9017H17.7959V13.0824H19.9891V10.9017Z" fill="white"/>
<path d="M19.9891 8.72095H17.7959V10.9017H19.9891V8.72095Z" fill="white"/>
<path d="M19.9891 6.54028H17.7959V8.72099H19.9891V6.54028Z" fill="white"/>
<path d="M19.9891 4.35535H17.7959V6.5402H19.9891V4.35535Z" fill="white"/>
<path d="M19.9891 2.1748H17.7959V4.35551H19.9891V2.1748Z" fill="white"/>
<path d="M19.9891 -0.00598145H17.7959V2.17472H19.9891V-0.00598145Z" fill="#3B2714"/>
<path d="M17.7959 17.4479H15.5987V19.6286H17.7959V17.4479Z" fill="#3B2714"/>
<path d="M17.7959 15.2672H15.5987V17.4479H17.7959V15.2672Z" fill="white"/>
<path d="M17.7959 13.0823H15.5987V15.2671H17.7959V13.0823Z" fill="white"/>
<path d="M17.7959 10.9017H15.5987V13.0824H17.7959V10.9017Z" fill="white"/>
<path d="M17.7959 8.72095H15.5987V10.9017H17.7959V8.72095Z" fill="white"/>
<path d="M17.7959 6.54028H15.5987V8.72099H17.7959V6.54028Z" fill="white"/>
<path d="M17.7959 4.35535H15.5987V6.5402H17.7959V4.35535Z" fill="white"/>
<path d="M17.7959 2.1748H15.5987V4.35551H17.7959V2.1748Z" fill="white"/>
<path d="M17.7959 -0.00598145H15.5987V2.17472H17.7959V-0.00598145Z" fill="#3B2714"/>
<path d="M15.5986 15.2672H13.4014V17.4479H15.5986V15.2672Z" fill="#3B2714"/>
<path d="M15.5986 13.0823H13.4014V15.2671H15.5986V13.0823Z" fill="white"/>
<path d="M15.5986 10.9017H13.4014V13.0824H15.5986V10.9017Z" fill="white"/>
<path d="M15.5986 8.72095H13.4014V10.9017H15.5986V8.72095Z" fill="#3B2714"/>
<path d="M15.5986 6.54028H13.4014V8.72099H15.5986V6.54028Z" fill="white"/>
<path d="M15.5986 4.35535H13.4014V6.5402H15.5986V4.35535Z" fill="white"/>
<path d="M15.5986 2.1748H13.4014V4.35551H15.5986V2.1748Z" fill="white"/>
<path d="M15.5986 -0.00598145H13.4014V2.17472H15.5986V-0.00598145Z" fill="#3B2714"/>
<path d="M13.4014 15.2672H11.2041V17.4479H13.4014V15.2672Z" fill="#3B2714"/>
<path d="M13.4014 13.0823H11.2041V15.2671H13.4014V13.0823Z" fill="white"/>
<path d="M13.4014 10.9017H11.2041V13.0824H13.4014V10.9017Z" fill="white"/>
<path d="M13.4014 8.72095H11.2041V10.9017H13.4014V8.72095Z" fill="white"/>
<path d="M13.4014 6.54028H11.2041V8.72099H13.4014V6.54028Z" fill="white"/>
<path d="M13.4014 4.35535H11.2041V6.5402H13.4014V4.35535Z" fill="white"/>
<path d="M13.4014 2.1748H11.2041V4.35551H13.4014V2.1748Z" fill="white"/>
<path d="M13.4014 -0.00598145H11.2041V2.17472H13.4014V-0.00598145Z" fill="#3B2714"/>
<path d="M11.2041 15.2672H9.00681V17.4479H11.2041V15.2672Z" fill="#3B2714"/>
<path d="M11.2041 13.0823H9.00681V15.2671H11.2041V13.0823Z" fill="white"/>
<path d="M11.2041 10.9017H9.00681V13.0824H11.2041V10.9017Z" fill="white"/>
<path d="M11.2041 8.72095H9.00681V10.9017H11.2041V8.72095Z" fill="white"/>
<path d="M11.2041 6.54028H9.00681V8.72099H11.2041V6.54028Z" fill="white"/>
<path d="M11.2041 4.35535H9.00681V6.5402H11.2041V4.35535Z" fill="white"/>
<path d="M11.2041 2.1748H9.00681V4.35551H11.2041V2.1748Z" fill="white"/>
<path d="M11.2041 -0.00598145H9.00681V2.17472H11.2041V-0.00598145Z" fill="#3B2714"/>
<path d="M9.00681 15.2672H6.81369V17.4479H9.00681V15.2672Z" fill="#3B2714"/>
<path d="M9.00681 13.0823H6.81369V15.2671H9.00681V13.0823Z" fill="white"/>
<path d="M9.00681 10.9017H6.81369V13.0824H9.00681V10.9017Z" fill="white"/>
<path d="M9.00681 8.72095H6.81369V10.9017H9.00681V8.72095Z" fill="#3B2714"/>
<path d="M9.00681 6.54028H6.81369V8.72099H9.00681V6.54028Z" fill="white"/>
<path d="M9.00681 4.35535H6.81369V6.5402H9.00681V4.35535Z" fill="white"/>
<path d="M9.00681 2.1748H6.81369V4.35551H9.00681V2.1748Z" fill="white"/>
<path d="M9.00681 -0.00598145H6.81369V2.17472H9.00681V-0.00598145Z" fill="#3B2714"/>
<path d="M6.81367 15.2672H4.61639V17.4479H6.81367V15.2672Z" fill="#3B2714"/>
<path d="M6.81367 13.0823H4.61639V15.2671H6.81367V13.0823Z" fill="white"/>
<path d="M6.81367 10.9017H4.61639V13.0824H6.81367V10.9017Z" fill="white"/>
<path d="M6.81367 8.72095H4.61639V10.9017H6.81367V8.72095Z" fill="white"/>
<path d="M6.81367 6.54028H4.61639V8.72099H6.81367V6.54028Z" fill="white"/>
<path d="M6.81367 4.35535H4.61639V6.5402H6.81367V4.35535Z" fill="white"/>
<path d="M6.81367 2.1748H4.61639V4.35551H6.81367V2.1748Z" fill="white"/>
<path d="M6.81367 -0.00598145H4.61639V2.17472H6.81367V-0.00598145Z" fill="#3B2714"/>
<path d="M4.61643 13.0823H2.41913V15.2671H4.61643V13.0823Z" fill="#3B2714"/>
<path d="M4.61643 10.9017H2.41913V13.0824H4.61643V10.9017Z" fill="white"/>
<path d="M4.61643 8.72095H2.41913V10.9017H4.61643V8.72095Z" fill="white"/>
<path d="M4.61643 6.54028H2.41913V8.72099H4.61643V6.54028Z" fill="white"/>
<path d="M4.61643 4.35535H2.41913V6.5402H4.61643V4.35535Z" fill="white"/>
<path d="M4.61643 2.1748H2.41913V4.35551H4.61643V2.1748Z" fill="#3B2714"/>
<path d="M2.41913 10.9017H0.221863V13.0824H2.41913V10.9017Z" fill="#3B2714"/>
<path d="M2.41913 8.72095H0.221863V10.9017H2.41913V8.72095Z" fill="#3B2714"/>
<path d="M2.41913 6.54028H0.221863V8.72099H2.41913V6.54028Z" fill="#3B2714"/>
<path d="M2.41913 4.35535H0.221863V6.5402H2.41913V4.35535Z" fill="#3B2714"/>
</svg>
