<svg width="43" height="22" viewBox="0 0 43 22" fill="none" xmlns="http://www.w3.org/2000/svg">
<path d="M0.582398 14.6591H3.03973V17.1071H0.582398V14.6591Z" fill="#3B2714"/>
<path d="M0.582398 12.2157H3.03973V14.6591H0.582398V12.2157Z" fill="#3B2714"/>
<path d="M3.03978 17.1073H5.50177V19.5507H3.03978V17.1073Z" fill="#3B2714"/>
<path d="M3.03978 14.6591H5.50177V17.1071H3.03978V14.6591Z" fill="#3392DB"/>
<path d="M3.03978 12.2157H5.50177V14.6591H3.03978V12.2157Z" fill="#3392DB"/>
<path d="M3.03978 9.77234H5.50177V12.2157H3.03978V9.77234Z" fill="#3B2714"/>
<path d="M5.50173 19.5507H7.96371V21.9941H5.50173V19.5507Z" fill="#3B2714"/>
<path d="M5.50173 17.1073H7.96371V19.5507H5.50173V17.1073Z" fill="#3392DB"/>
<path d="M5.50173 14.6591H7.96371V17.1071H5.50173V14.6591Z" fill="#56B6FF"/>
<path d="M5.50173 12.2157H7.96371V14.6591H5.50173V12.2157Z" fill="#56B6FF"/>
<path d="M5.50173 9.77234H7.96371V12.2157H5.50173V9.77234Z" fill="#C7E7FF"/>
<path d="M5.50173 7.32898H7.96371V9.77239H5.50173V7.32898Z" fill="#3B2714"/>
<path d="M7.96373 19.5507H10.4257V21.9941H7.96373V19.5507Z" fill="#3B2714"/>
<path d="M7.96373 17.1073H10.4257V19.5507H7.96373V17.1073Z" fill="#3392DB"/>
<path d="M7.96373 14.6591H10.4257V17.1071H7.96373V14.6591Z" fill="#56B6FF"/>
<path d="M7.96373 12.2157H10.4257V14.6591H7.96373V12.2157Z" fill="#C7E7FF"/>
<path d="M7.96373 9.77234H10.4257V12.2157H7.96373V9.77234Z" fill="#C7E7FF"/>
<path d="M7.96373 7.32898H10.4257V9.77239H7.96373V7.32898Z" fill="#3B2714"/>
<path d="M10.4257 19.5507H12.8877V21.9941H10.4257V19.5507Z" fill="#3B2714"/>
<path d="M10.4257 17.1073H12.8877V19.5507H10.4257V17.1073Z" fill="#3392DB"/>
<path d="M10.4257 14.6591H12.8877V17.1071H10.4257V14.6591Z" fill="#C7E7FF"/>
<path d="M10.4257 12.2157H12.8877V14.6591H10.4257V12.2157Z" fill="#C7E7FF"/>
<path d="M10.4257 9.77234H12.8877V12.2157H10.4257V9.77234Z" fill="#3B2714"/>
<path d="M12.8877 19.5507H15.345V21.9941H12.8877V19.5507Z" fill="#3B2714"/>
<path d="M12.8877 17.1073H15.345V19.5507H12.8877V17.1073Z" fill="#3392DB"/>
<path d="M12.8877 14.6591H15.345V17.1071H12.8877V14.6591Z" fill="#3392DB"/>
<path d="M12.8877 12.2157H15.345V14.6591H12.8877V12.2157Z" fill="#3392DB"/>
<path d="M12.8877 9.77234H15.345V12.2157H12.8877V9.77234Z" fill="#3392DB"/>
<path d="M12.8877 7.32898H15.345V9.77239H12.8877V7.32898Z" fill="#3B2714"/>
<path d="M12.8877 4.88086H15.345V7.32891H12.8877V4.88086Z" fill="#3B2714"/>
<path d="M15.345 19.5507H17.807V21.9941H15.345V19.5507Z" fill="#3B2714"/>
<path d="M15.345 17.1073H17.807V19.5507H15.345V17.1073Z" fill="#3392DB"/>
<path d="M15.345 14.6591H17.807V17.1071H15.345V14.6591Z" fill="#3392DB"/>
<path d="M15.345 12.2157H17.807V14.6591H15.345V12.2157Z" fill="#56B6FF"/>
<path d="M15.345 9.77234H17.807V12.2157H15.345V9.77234Z" fill="#56B6FF"/>
<path d="M15.345 7.32898H17.807V9.77239H15.345V7.32898Z" fill="#56B6FF"/>
<path d="M15.345 4.88086H17.807V7.32891H15.345V4.88086Z" fill="#56B6FF"/>
<path d="M15.345 2.43738H17.807V4.88078H15.345V2.43738Z" fill="#3B2714"/>
<path d="M17.8071 19.5507H20.269V21.9941H17.8071V19.5507Z" fill="#3B2714"/>
<path d="M17.8071 17.1073H20.269V19.5507H17.8071V17.1073Z" fill="#3392DB"/>
<path d="M17.8071 14.6591H20.269V17.1071H17.8071V14.6591Z" fill="#56B6FF"/>
<path d="M17.8071 12.2157H20.269V14.6591H17.8071V12.2157Z" fill="#56B6FF"/>
<path d="M17.8071 9.77234H20.269V12.2157H17.8071V9.77234Z" fill="#56B6FF"/>
<path d="M17.8071 7.32898H20.269V9.77239H17.8071V7.32898Z" fill="#56B6FF"/>
<path d="M17.8071 4.88086H20.269V7.32891H17.8071V4.88086Z" fill="#56B6FF"/>
<path d="M17.8071 2.43738H20.269V4.88078H17.8071V2.43738Z" fill="#C7E7FF"/>
<path d="M17.8071 -0.00598145H20.269V2.43742H17.8071V-0.00598145Z" fill="#3B2714"/>
<path d="M20.269 19.5507H22.731V21.9941H20.269V19.5507Z" fill="#3B2714"/>
<path d="M20.269 17.1073H22.731V19.5507H20.269V17.1073Z" fill="#3392DB"/>
<path d="M20.269 14.6591H22.731V17.1071H20.269V14.6591Z" fill="#56B6FF"/>
<path d="M20.269 12.2157H22.731V14.6591H20.269V12.2157Z" fill="#56B6FF"/>
<path d="M20.269 9.77234H22.731V12.2157H20.269V9.77234Z" fill="#56B6FF"/>
<path d="M20.269 7.32898H22.731V9.77239H20.269V7.32898Z" fill="#56B6FF"/>
<path d="M20.269 4.88086H22.731V7.32891H20.269V4.88086Z" fill="#56B6FF"/>
<path d="M20.269 2.43738H22.731V4.88078H20.269V2.43738Z" fill="#C7E7FF"/>
<path d="M20.269 -0.00598145H22.731V2.43742H20.269V-0.00598145Z" fill="#3B2714"/>
<path d="M22.731 19.5507H25.193V21.9941H22.731V19.5507Z" fill="#3B2714"/>
<path d="M22.731 17.1073H25.193V19.5507H22.731V17.1073Z" fill="#3392DB"/>
<path d="M22.731 14.6591H25.193V17.1071H22.731V14.6591Z" fill="#56B6FF"/>
<path d="M22.731 12.2157H25.193V14.6591H22.731V12.2157Z" fill="#56B6FF"/>
<path d="M22.731 9.77234H25.193V12.2157H22.731V9.77234Z" fill="#56B6FF"/>
<path d="M22.731 7.32898H25.193V9.77239H22.731V7.32898Z" fill="#56B6FF"/>
<path d="M22.731 4.88086H25.193V7.32891H22.731V4.88086Z" fill="#C7E7FF"/>
<path d="M22.731 2.43738H25.193V4.88078H22.731V2.43738Z" fill="#C7E7FF"/>
<path d="M22.731 -0.00598145H25.193V2.43742H22.731V-0.00598145Z" fill="#3B2714"/>
<path d="M25.193 19.5507H27.6503V21.9941H25.193V19.5507Z" fill="#3B2714"/>
<path d="M25.193 17.1073H27.6503V19.5507H25.193V17.1073Z" fill="#3392DB"/>
<path d="M25.193 14.6591H27.6503V17.1071H25.193V14.6591Z" fill="#56B6FF"/>
<path d="M25.193 12.2157H27.6503V14.6591H25.193V12.2157Z" fill="#56B6FF"/>
<path d="M25.193 9.77234H27.6503V12.2157H25.193V9.77234Z" fill="#C7E7FF"/>
<path d="M25.193 7.32898H27.6503V9.77239H25.193V7.32898Z" fill="#C7E7FF"/>
<path d="M25.193 4.88086H27.6503V7.32891H25.193V4.88086Z" fill="#C7E7FF"/>
<path d="M25.193 2.43738H27.6503V4.88078H25.193V2.43738Z" fill="#3B2714"/>
<path d="M27.6503 19.5507H30.1123V21.9941H27.6503V19.5507Z" fill="#3B2714"/>
<path d="M27.6503 17.1073H30.1123V19.5507H27.6503V17.1073Z" fill="#3392DB"/>
<path d="M27.6503 14.6591H30.1123V17.1071H27.6503V14.6591Z" fill="#56B6FF"/>
<path d="M27.6503 12.2157H30.1123V14.6591H27.6503V12.2157Z" fill="#C7E7FF"/>
<path d="M27.6503 9.77234H30.1123V12.2157H27.6503V9.77234Z" fill="#C7E7FF"/>
<path d="M27.6503 7.32898H30.1123V9.77239H27.6503V7.32898Z" fill="#3B2714"/>
<path d="M27.6503 4.88086H30.1123V7.32891H27.6503V4.88086Z" fill="#3B2714"/>
<path d="M30.1123 19.5507H32.5743V21.9941H30.1123V19.5507Z" fill="#3B2714"/>
<path d="M30.1123 17.1073H32.5743V19.5507H30.1123V17.1073Z" fill="#3392DB"/>
<path d="M30.1123 14.6591H32.5743V17.1071H30.1123V14.6591Z" fill="#3392DB"/>
<path d="M30.1123 12.2157H32.5743V14.6591H30.1123V12.2157Z" fill="#56B6FF"/>
<path d="M30.1123 9.77234H32.5743V12.2157H30.1123V9.77234Z" fill="#3B2714"/>
<path d="M32.5743 19.5507H35.0363V21.9941H32.5743V19.5507Z" fill="#3B2714"/>
<path d="M32.5743 17.1073H35.0363V19.5507H32.5743V17.1073Z" fill="#3392DB"/>
<path d="M32.5743 14.6591H35.0363V17.1071H32.5743V14.6591Z" fill="#56B6FF"/>
<path d="M32.5743 12.2157H35.0363V14.6591H32.5743V12.2157Z" fill="#56B6FF"/>
<path d="M32.5743 9.77234H35.0363V12.2157H32.5743V9.77234Z" fill="#C7E7FF"/>
<path d="M32.5743 7.32898H35.0363V9.77239H32.5743V7.32898Z" fill="#3B2714"/>
<path d="M35.0362 19.5507H37.4982V21.9941H35.0362V19.5507Z" fill="#3B2714"/>
<path d="M35.0362 17.1073H37.4982V19.5507H35.0362V17.1073Z" fill="#3392DB"/>
<path d="M35.0362 14.6591H37.4982V17.1071H35.0362V14.6591Z" fill="#56B6FF"/>
<path d="M35.0362 12.2157H37.4982V14.6591H35.0362V12.2157Z" fill="#C7E7FF"/>
<path d="M35.0362 9.77234H37.4982V12.2157H35.0362V9.77234Z" fill="#C7E7FF"/>
<path d="M35.0362 7.32898H37.4982V9.77239H35.0362V7.32898Z" fill="#3B2714"/>
<path d="M37.4983 17.1073H39.9556V19.5507H37.4983V17.1073Z" fill="#3B2714"/>
<path d="M37.4983 14.6591H39.9556V17.1071H37.4983V14.6591Z" fill="#C7E7FF"/>
<path d="M37.4983 12.2157H39.9556V14.6591H37.4983V12.2157Z" fill="#C7E7FF"/>
<path d="M37.4983 9.77234H39.9556V12.2157H37.4983V9.77234Z" fill="#3B2714"/>
<path d="M39.9556 14.6591H42.4176V17.1071H39.9556V14.6591Z" fill="#3B2714"/>
<path d="M39.9556 12.2157H42.4176V14.6591H39.9556V12.2157Z" fill="#3B2714"/>
</svg>
