<svg width="33" height="34" viewBox="0 0 33 34" fill="none" xmlns="http://www.w3.org/2000/svg">
<path d="M5.1701 22.6323L21.0283 22.6323L21.0283 6.79228L5.1701 6.79228L5.1701 22.6323Z" fill="#CBE4F9"/>
<path d="M27.8298 2.27026H25.5623V4.53723H27.8298V2.27026Z" fill="#159CD7"/>
<path d="M7.43717 2.27026H5.1702V4.53723H7.43717V2.27026Z" fill="#159CD7"/>
<path d="M25.5744 4.52515H23.3075V6.79211H25.5744V4.52515Z" fill="#159CD7"/>
<path d="M23.2953 6.81714H21.0279V22.6491H23.2953V6.81714Z" fill="#159CD7"/>
<path d="M27.8298 20.3743H25.5623V22.6412H27.8298V20.3743Z" fill="#159CD7"/>
<path d="M30.0973 27.1921H27.8298V29.4591H30.0973V27.1921Z" fill="#159CD7"/>
<path d="M27.8298 29.4597H25.5623V31.7267H27.8298V29.4597Z" fill="#159CD7"/>
<path d="M2.90322 22.6326H0.635742V31.7272H2.90322V22.6326Z" fill="#159CD7"/>
<path d="M25.5623 31.7266H2.90271V33.994H25.5623V31.7266Z" fill="#159CD7"/>
<path d="M25.5628 22.6411H23.2953V29.4597H25.5628V22.6411Z" fill="#159CD7"/>
<path d="M21.0279 22.6411H5.16968V24.9081H21.0279V22.6411Z" fill="#159CD7"/>
<path d="M5.16968 6.79248H2.90271V22.6325H5.16968V6.79248Z" fill="#159CD7"/>
<path d="M18.7609 9.08765H7.43564V20.3741H18.7609V9.08765Z" fill="#A6D0DB"/>
<path d="M7.43717 4.52759H5.1702V6.79506H7.43717V4.52759Z" fill="#A6D0DB"/>
<path d="M23.2953 4.52759H21.0279V6.79506H23.2953V4.52759Z" fill="#A6D0DB"/>
<path d="M23.2953 22.6411H21.0279V24.9081H23.2953V22.6411Z" fill="#A6D0DB"/>
<path d="M30.0973 4.53711H27.8298V20.3741H30.0973V4.53711Z" fill="#159CD7"/>
<path d="M25.5623 -0.00585938H7.43716V2.26111H25.5623V-0.00585938Z" fill="#159CD7"/>
<path d="M21.0279 4.52515H7.43716V6.79262H21.0279V4.52515Z" fill="#159CD7"/>
<path d="M18.7614 18.1067H16.4939V20.3742H18.7614V18.1067Z" fill="#159CD7"/>
<path d="M18.7614 9.08765H16.4939V11.3546H18.7614V9.08765Z" fill="white"/>
<path d="M14.2391 9.08765H11.9716V11.3546H14.2391V9.08765Z" fill="white"/>
<path d="M9.70463 9.08765H7.43716V11.3546H9.70463V9.08765Z" fill="white"/>
<path d="M9.70463 13.604H7.43716V15.871H9.70463V13.604Z" fill="white"/>
<path d="M11.965 11.322H9.69806V13.589H11.965V11.322Z" fill="white"/>
<path d="M32.3642 20.3743H30.0967V27.1928H32.3642V20.3743Z" fill="#159CD7"/>
<path d="M2.90271 22.6326H5.16968V24.9086H23.2954V29.4597H25.5623V31.7267H2.90271V22.6326Z" fill="#CBE4F9"/>
<path d="M9.70463 27.1841H5.1702V29.4516H9.70463V27.1841Z" fill="#159CD7"/>
<path d="M14.2391 27.1841H11.9716V29.4516H14.2391V27.1841Z" fill="#159CD7"/>
<path d="M27.8292 27.1924H30.0967V20.3738H27.8292V27.1924Z" fill="#A6D0DB"/>
<path d="M25.5624 20.374H27.8299L27.8299 4.54406H25.5624V20.374Z" fill="#A6D0DB"/>
<path d="M23.3073 22.6272H25.5743L25.5743 6.79724H23.3073V22.6272Z" fill="#A6D0DB"/>
<path d="M25.5624 29.4895H27.8299V22.6709H25.5624V29.4895Z" fill="#A6D0DB"/>
<path d="M7.43727 4.52515L25.5624 4.52515V2.26977L7.43727 2.26977V4.52515Z" fill="#CBE4F9"/>
<path d="M27.8298 31.7266H25.5623V33.994H27.8298V31.7266Z" fill="#2E579F"/>
<path d="M30.0973 29.4597H27.8298V31.7267H30.0973V29.4597Z" fill="#2E579F"/>
<path d="M32.3642 27.1741H30.0967V29.4415H32.3642V27.1741Z" fill="#2E579F"/>
</svg>
