<svg width="20" height="16" viewBox="0 0 20 16" fill="none" xmlns="http://www.w3.org/2000/svg">
<path d="M17.1429 7.28491H15.713V8.71219H17.1429V7.28491Z" fill="#65658F"/>
<path d="M14.2857 8.71216H12.8558V10.142H14.2857V8.71216Z" fill="#65658F"/>
<path d="M12.8559 11.5695V12.9993H11.4286V14.4266H12.8559H14.2857V12.9993V11.5695H12.8559Z" fill="#65658F"/>
<path d="M11.4286 10.1422H9.99875V11.5695H11.4286V10.1422Z" fill="#65658F"/>
<path d="M15.713 5.85522H14.2857V7.2851V8.71237H15.713V7.2851H17.1428V5.85522H15.713Z" fill="#8E8EC7"/>
<path d="M12.8558 11.5695H11.4286V12.9993H12.8558V11.5695Z" fill="#8E8EC7"/>
<path d="M12.8558 8.71216H11.4286V10.142H12.8558V8.71216Z" fill="#8E8EC7"/>
<path d="M8.57141 12.9994V14.4267H9.99868H11.4286V12.9994H9.99868H8.57141Z" fill="#8E8EC7"/>
<path d="M9.99868 10.1422H8.57141V11.5695H9.99868V10.1422Z" fill="#8E8EC7"/>
<path d="M15.713 4.42794H14.2857V3.00067H12.8558H11.4285V1.5708H9.99867V3.00067V4.42794H8.57141V3.00067H7.14413V4.42794V5.85522H5.71426V4.42794H4.28699V5.85522H2.85712V7.28509V8.71236H4.28699H5.71426V10.1422H7.14413H8.57141H9.99867H11.4285V8.71236H12.8558H14.2857V7.28509V5.85522H15.713H17.1428V4.42794H15.713ZM9.99867 7.28509H8.57141V5.85522H9.99867H11.4285V7.28509H9.99867Z" fill="#9A9AE6"/>
<path d="M5.71423 11.5695V12.9993V14.4266H7.1441H8.57138V12.9993V11.5695H7.1441H5.71423Z" fill="#9A9AE6"/>
<path d="M8.57141 1.5708V3.00067V4.42794H9.99868V3.00067V1.5708H8.57141Z" fill="#DBD7FC"/>
<path d="M5.71423 4.42788V5.85515H7.1441V4.42788V3.00061H5.71423V4.42788Z" fill="#DBD7FC"/>
<path d="M4.28699 4.42786H2.85712V5.85513H4.28699V4.42786Z" fill="#DBD7FC"/>
<path d="M5.71423 11.5695V12.9993V14.4266H7.1441V12.9993V11.5695H5.71423Z" fill="#DBD7FC"/>
<path d="M2.8572 14.4265H1.42993V15.8564H2.8572V14.4265Z" fill="#FFD393"/>
<path d="M18.5702 5.85513V4.42786H17.1429V5.85513V7.285V8.71227H18.5702V7.285H20V5.85513H18.5702Z" fill="#3B2714"/>
<path d="M14.2857 8.71216V10.142H12.8559H11.4286V11.5693H12.8559H14.2857V12.9992V14.4264H15.713V12.9992V11.5693V10.142H17.1429V8.71216H15.713H14.2857Z" fill="#3B2714"/>
<path d="M15.713 4.42788H17.1428V3.00061H15.713H14.2857V4.42788H15.713Z" fill="#3B2714"/>
<path d="M11.4285 14.4265H9.99865H8.57138H7.1441H5.71423V15.8564H7.1441H8.57138H9.99865H11.4285H12.8558H14.2857V14.4265H12.8558H11.4285Z" fill="#3B2714"/>
<path d="M12.8559 3.00067H14.2857V1.5708H12.8559H11.4286V3.00067H12.8559Z" fill="#3B2714"/>
<path d="M11.4286 7.2851V5.85522H9.99868H8.57141V7.2851H9.99868H11.4286Z" fill="#3B2714"/>
<path d="M11.4286 1.57083V0.143555H9.99868H8.57141V1.57083H9.99868H11.4286Z" fill="#3B2714"/>
<path d="M9.99868 12.9993H11.4286V11.5695H9.99868H8.57141V12.9993H9.99868Z" fill="#3B2714"/>
<path d="M8.57138 8.71219V7.28491H7.1441H5.71423V8.71219H7.1441H8.57138Z" fill="#3B2714"/>
<path d="M8.57138 3.00067V1.5708H7.1441H5.71423V3.00067H7.1441H8.57138Z" fill="#3B2714"/>
<path d="M5.71426 11.5693H7.14413H8.5714V10.142H7.14413H5.71426V8.71216H4.28699H2.85712V10.142H4.28699V11.5693V12.9992V14.4264H5.71426V12.9992V11.5693Z" fill="#3B2714"/>
<path d="M5.71426 4.42788V3.00061H4.28699H2.85712V4.42788H4.28699H5.71426Z" fill="#3B2714"/>
<path d="M1.42993 11.5695V12.9994V14.4266H2.8572V12.9994V11.5695V10.1422H1.42993V11.5695Z" fill="#3B2714"/>
<path d="M2.85714 5.85513V4.42786H1.42987V5.85513H0V7.285H1.42987V8.71227H2.85714V7.285V5.85513Z" fill="#3B2714"/>
</svg>
