<svg width="56" height="58" viewBox="0 0 56 58" fill="none" xmlns="http://www.w3.org/2000/svg">
<path d="M18.6667 -0.00585938C24.8267 -0.00585938 30.9867 -0.00585938 37.3333 -0.00585938C37.3333 0.677712 37.3333 1.36128 37.3333 2.06557C38.7022 2.06557 40.0711 2.06557 41.4815 2.06557C41.4815 2.74914 41.4815 3.43271 41.4815 4.137C42.1659 4.137 42.8504 4.137 43.5556 4.137C43.5556 4.82057 43.5556 5.50414 43.5556 6.20843C44.24 6.20843 44.9244 6.20843 45.6296 6.20843C45.6296 6.892 45.6296 7.57557 45.6296 8.27986C46.3141 8.27986 46.9985 8.27986 47.7037 8.27986C47.7037 8.96343 47.7037 9.647 47.7037 10.3513C48.3881 10.3513 49.0726 10.3513 49.7778 10.3513C49.7778 11.0349 49.7778 11.7184 49.7778 12.4227C50.4622 12.4227 51.1467 12.4227 51.8519 12.4227C51.8519 13.7899 51.8519 15.157 51.8519 16.5656C52.5363 16.5656 53.2207 16.5656 53.9259 16.5656C53.9259 17.9327 53.9259 19.2999 53.9259 20.7084C54.6104 20.7084 55.2948 20.7084 56 20.7084C56 26.8606 56 33.0127 56 39.3513C55.3156 39.3513 54.6311 39.3513 53.9259 39.3513C53.9259 40.7184 53.9259 42.0856 53.9259 43.4941C53.2415 43.4941 52.557 43.4941 51.8519 43.4941C51.8519 44.1777 51.8519 44.8613 51.8519 45.5656C51.1674 45.5656 50.483 45.5656 49.7778 45.5656C49.7778 46.2491 49.7778 46.9327 49.7778 47.637C49.0933 47.637 48.4089 47.637 47.7037 47.637C47.7037 48.3206 47.7037 49.0041 47.7037 49.7084C47.0193 49.7084 46.3348 49.7084 45.6296 49.7084C45.6296 50.392 45.6296 51.0756 45.6296 51.7799C44.9452 51.7799 44.2607 51.7799 43.5556 51.7799C43.5556 52.4634 43.5556 53.147 43.5556 53.8513C42.8711 53.8513 42.1867 53.8513 41.4815 53.8513C41.4815 54.5349 41.4815 55.2184 41.4815 55.9227C40.797 55.9227 40.1126 55.9227 39.4074 55.9227C39.4074 56.6063 39.4074 57.2899 39.4074 57.9941C38.0385 57.9941 36.6696 57.9941 35.2593 57.9941C35.2593 53.8927 35.2593 49.7913 35.2593 45.5656C34.5748 45.5656 33.8904 45.5656 33.1852 45.5656C33.1852 44.882 33.1852 44.1984 33.1852 43.4941C32.5007 43.4941 31.8163 43.4941 31.1111 43.4941C31.1111 42.8106 31.1111 42.127 31.1111 41.4227C33.8489 41.4227 36.5867 41.4227 39.4074 41.4227C39.4074 40.7391 39.4074 40.0556 39.4074 39.3513C40.0919 39.3513 40.7763 39.3513 41.4815 39.3513C41.4815 38.6677 41.4815 37.9841 41.4815 37.2799C42.1659 37.2799 42.8504 37.2799 43.5556 37.2799C43.5556 36.5963 43.5556 35.9127 43.5556 35.2084C44.24 35.2084 44.9244 35.2084 45.6296 35.2084C45.6296 31.107 45.6296 27.0056 45.6296 22.7799C44.9452 22.7799 44.2607 22.7799 43.5556 22.7799C43.5556 22.0963 43.5556 21.4127 43.5556 20.7084C42.8711 20.7084 42.1867 20.7084 41.4815 20.7084C41.4815 20.0249 41.4815 19.3413 41.4815 18.637C42.1659 18.637 42.8504 18.637 43.5556 18.637C43.5556 16.5863 43.5556 14.5356 43.5556 12.4227C41.5022 12.4227 39.4489 12.4227 37.3333 12.4227C37.3333 13.1063 37.3333 13.7899 37.3333 14.4941C36.6489 14.4941 35.9644 14.4941 35.2593 14.4941C35.2593 15.1777 35.2593 15.8613 35.2593 16.5656C34.5748 16.5656 33.8904 16.5656 33.1852 16.5656C33.1852 15.882 33.1852 15.1984 33.1852 14.4941C29.763 14.4941 26.3407 14.4941 22.8148 14.4941C22.8148 15.1777 22.8148 15.8613 22.8148 16.5656C22.1304 16.5656 21.4459 16.5656 20.7407 16.5656C20.7407 15.882 20.7407 15.1984 20.7407 14.4941C20.0563 14.4941 19.3719 14.4941 18.6667 14.4941C18.6667 13.8106 18.6667 13.127 18.6667 12.4227C16.6133 12.4227 14.56 12.4227 12.4444 12.4227C12.4444 14.4734 12.4444 16.5241 12.4444 18.637C13.1289 18.637 13.8133 18.637 14.5185 18.637C14.5185 19.3206 14.5185 20.0041 14.5185 20.7084C13.8341 20.7084 13.1496 20.7084 12.4444 20.7084C12.4444 21.392 12.4444 22.0756 12.4444 22.7799C11.76 22.7799 11.0756 22.7799 10.3704 22.7799C10.3704 26.8813 10.3704 30.9827 10.3704 35.2084C11.0548 35.2084 11.7393 35.2084 12.4444 35.2084C12.4444 35.892 12.4444 36.5756 12.4444 37.2799C13.1289 37.2799 13.8133 37.2799 14.5185 37.2799C14.5185 37.9634 14.5185 38.647 14.5185 39.3513C15.203 39.3513 15.8874 39.3513 16.5926 39.3513C16.5926 40.0349 16.5926 40.7184 16.5926 41.4227C19.3304 41.4227 22.0681 41.4227 24.8889 41.4227C24.8889 42.1063 24.8889 42.7899 24.8889 43.4941C24.2044 43.4941 23.52 43.4941 22.8148 43.4941C22.8148 44.1777 22.8148 44.8613 22.8148 45.5656C22.1304 45.5656 21.4459 45.5656 20.7407 45.5656C20.7407 46.2491 20.7407 46.9327 20.7407 47.637C19.3719 47.637 18.003 47.637 16.5926 47.637C16.5926 46.9534 16.5926 46.2699 16.5926 45.5656C15.9081 45.5656 15.2237 45.5656 14.5185 45.5656C14.5185 44.882 14.5185 44.1984 14.5185 43.4941C13.8341 43.4941 13.1496 43.4941 12.4444 43.4941C12.4444 42.8106 12.4444 42.127 12.4444 41.4227C11.0756 41.4227 9.70667 41.4227 8.2963 41.4227C8.2963 42.1063 8.2963 42.7899 8.2963 43.4941C8.98074 43.4941 9.66518 43.4941 10.3704 43.4941C10.3704 44.1777 10.3704 44.8613 10.3704 45.5656C11.0548 45.5656 11.7393 45.5656 12.4444 45.5656C12.4444 46.2491 12.4444 46.9327 12.4444 47.637C13.1289 47.637 13.8133 47.637 14.5185 47.637C14.5185 48.3206 14.5185 49.0041 14.5185 49.7084C17.2563 49.7084 19.9941 49.7084 22.8148 49.7084C22.8148 52.4427 22.8148 55.177 22.8148 57.9941C21.4459 57.9941 20.077 57.9941 18.6667 57.9941C18.6667 57.3106 18.6667 56.627 18.6667 55.9227C17.2978 55.9227 15.9289 55.9227 14.5185 55.9227C14.5185 55.2391 14.5185 54.5556 14.5185 53.8513C13.8341 53.8513 13.1496 53.8513 12.4444 53.8513C12.4444 53.1677 12.4444 52.4841 12.4444 51.7799C11.76 51.7799 11.0756 51.7799 10.3704 51.7799C10.3704 51.0963 10.3704 50.4127 10.3704 49.7084C9.68593 49.7084 9.00148 49.7084 8.2963 49.7084C8.2963 49.0249 8.2963 48.3413 8.2963 47.637C7.61185 47.637 6.92741 47.637 6.22222 47.637C6.22222 46.9534 6.22222 46.2699 6.22222 45.5656C5.53778 45.5656 4.85333 45.5656 4.14815 45.5656C4.14815 44.882 4.14815 44.1984 4.14815 43.4941C3.4637 43.4941 2.77926 43.4941 2.07407 43.4941C2.07407 42.127 2.07407 40.7599 2.07407 39.3513C1.38963 39.3513 0.705185 39.3513 0 39.3513C0 33.1991 0 27.047 0 20.7084C0.684444 20.7084 1.36889 20.7084 2.07407 20.7084C2.07407 19.3413 2.07407 17.9741 2.07407 16.5656C2.75852 16.5656 3.44296 16.5656 4.14815 16.5656C4.14815 15.1984 4.14815 13.8313 4.14815 12.4227C4.83259 12.4227 5.51704 12.4227 6.22222 12.4227C6.22222 11.7391 6.22222 11.0556 6.22222 10.3513C6.90667 10.3513 7.59111 10.3513 8.2963 10.3513C8.2963 9.66771 8.2963 8.98414 8.2963 8.27986C8.98074 8.27986 9.66518 8.27986 10.3704 8.27986C10.3704 7.59628 10.3704 6.91271 10.3704 6.20843C11.0548 6.20843 11.7393 6.20843 12.4444 6.20843C12.4444 5.52486 12.4444 4.84128 12.4444 4.137C13.1289 4.137 13.8133 4.137 14.5185 4.137C14.5185 3.45343 14.5185 2.76986 14.5185 2.06557C15.8874 2.06557 17.2563 2.06557 18.6667 2.06557C18.6667 1.382 18.6667 0.698426 18.6667 -0.00585938Z" fill="#FDF5EE"/>
</svg>
