<svg width="30" height="34" viewBox="0 0 30 34" fill="none" xmlns="http://www.w3.org/2000/svg">
<path d="M29.9683 26.708H27.5384V29.1337H29.9683V26.708Z" fill="#3B2714"/>
<path d="M29.9683 24.2778H27.5384V26.708H29.9683V24.2778Z" fill="#3B2714"/>
<path d="M29.9683 21.8521H27.5384V24.2778H29.9683V21.8521Z" fill="#3B2714"/>
<path d="M29.9683 19.4221H27.5384V21.8523H29.9683V19.4221Z" fill="#3B2714"/>
<path d="M29.9683 16.9919H27.5384V19.4222H29.9683V16.9919Z" fill="#3B2714"/>
<path d="M29.9683 14.5662H27.5384V16.9919H29.9683V14.5662Z" fill="#3B2714"/>
<path d="M29.9683 12.136H27.5384V14.5662H29.9683V12.136Z" fill="#3B2714"/>
<path d="M29.9683 9.71021H27.5384V12.1359H29.9683V9.71021Z" fill="#3B2714"/>
<path d="M29.9683 7.28003H27.5384V9.71024H29.9683V7.28003Z" fill="#3B2714"/>
<path d="M29.9683 4.8501H27.5384V7.28031H29.9683V4.8501Z" fill="#3B2714"/>
<path d="M29.9683 2.42407H27.5384V4.84981H29.9683V2.42407Z" fill="#3B2714"/>
<path d="M29.9683 -0.00585938H27.5384V2.42435H29.9683V-0.00585938Z" fill="#3B2714"/>
<path d="M27.5384 29.134H25.1127V31.5642H27.5384V29.134Z" fill="#3B2714"/>
<path d="M27.5384 26.708H25.1127V29.1337H27.5384V26.708Z" fill="#FBDE76"/>
<path d="M27.5384 24.2778H25.1127V26.708H27.5384V24.2778Z" fill="#FBDE76"/>
<path d="M27.5384 21.8521H25.1127V24.2778H27.5384V21.8521Z" fill="#FBDE76"/>
<path d="M27.5384 19.4221H25.1127V21.8523H27.5384V19.4221Z" fill="#FBDE76"/>
<path d="M27.5384 16.9919H25.1127V19.4222H27.5384V16.9919Z" fill="#FBDE76"/>
<path d="M27.5384 14.5662H25.1127V16.9919H27.5384V14.5662Z" fill="#FBDE76"/>
<path d="M27.5384 12.136H25.1127V14.5662H27.5384V12.136Z" fill="#FBDE76"/>
<path d="M27.5384 9.71021H25.1127V12.1359H27.5384V9.71021Z" fill="#FBDE76"/>
<path d="M27.5384 7.28003H25.1127V9.71024H27.5384V7.28003Z" fill="#FBDE76"/>
<path d="M27.5384 4.8501H25.1127V7.28031H27.5384V4.8501Z" fill="#FBDE76"/>
<path d="M27.5384 2.42407H25.1127V4.84981H27.5384V2.42407Z" fill="#FBDE76"/>
<path d="M27.5384 -0.00585938H25.1127V2.42435H27.5384V-0.00585938Z" fill="#FBDE76"/>
<path d="M25.1123 29.134H22.6824V31.5642H25.1123V29.134Z" fill="#3B2714"/>
<path d="M25.1123 26.708H22.6824V29.1337H25.1123V26.708Z" fill="#FBDE76"/>
<path d="M25.1123 24.2778H22.6824V26.708H25.1123V24.2778Z" fill="#FBDE76"/>
<path d="M25.1123 21.8521H22.6824V24.2778H25.1123V21.8521Z" fill="#FBDE76"/>
<path d="M25.1123 19.4221H22.6824V21.8523H25.1123V19.4221Z" fill="white"/>
<path d="M25.1123 16.9919H22.6824V19.4222H25.1123V16.9919Z" fill="#FBDE76"/>
<path d="M25.1123 2.42407H22.6824V4.84981H25.1123V2.42407Z" fill="#3B2714"/>
<path d="M25.1123 -0.00585938H22.6824V2.42435H25.1123V-0.00585938Z" fill="#FBDE76"/>
<path d="M22.6828 29.134H20.2526V31.5642H22.6828V29.134Z" fill="#3B2714"/>
<path d="M22.6828 26.708H20.2526V29.1337H22.6828V26.708Z" fill="#FBDE76"/>
<path d="M22.6828 24.2778H20.2526V26.708H22.6828V24.2778Z" fill="white"/>
<path d="M22.6828 21.8521H20.2526V24.2778H22.6828V21.8521Z" fill="white"/>
<path d="M22.6828 19.4221H20.2526V21.8523H22.6828V19.4221Z" fill="white"/>
<path d="M22.6828 16.9919H20.2526V19.4222H22.6828V16.9919Z" fill="#FBDE76"/>
<path d="M22.6828 2.42407H20.2526V4.84981H22.6828V2.42407Z" fill="#3B2714"/>
<path d="M22.6828 -0.00585938H20.2526V2.42435H22.6828V-0.00585938Z" fill="#FBDE76"/>
<path d="M20.2525 26.708H17.8268V29.1337H20.2525V26.708Z" fill="#FBDE76"/>
<path d="M20.2525 24.2778H17.8268V26.708H20.2525V24.2778Z" fill="#FBDE76"/>
<path d="M20.2525 21.8521H17.8268V24.2778H20.2525V21.8521Z" fill="#FBDE76"/>
<path d="M20.2525 19.4221H17.8268V21.8523H20.2525V19.4221Z" fill="#FBDE76"/>
<path d="M20.2525 4.8501H17.8268V7.28031H20.2525V4.8501Z" fill="#3B2714"/>
<path d="M20.2525 2.42407H17.8268V4.84981H20.2525V2.42407Z" fill="#3B2714"/>
<path d="M20.2525 -0.00585938H17.8268V2.42435H20.2525V-0.00585938Z" fill="#FBDE76"/>
<path d="M17.8268 4.8501H15.3966V7.28031H17.8268V4.8501Z" fill="#3B2714"/>
<path d="M17.8268 2.42407H15.3966V4.84981H17.8268V2.42407Z" fill="#FBDE76"/>
<path d="M15.3966 7.28003H12.9709V9.71024H15.3966V7.28003Z" fill="#3B2714"/>
<path d="M15.3966 4.8501H12.9709V7.28031H15.3966V4.8501Z" fill="#3B2714"/>
<path d="M15.3966 2.42407H12.9709V4.84981H15.3966V2.42407Z" fill="#FBDE76"/>
<path d="M12.9706 29.134H10.5407V31.5642H12.9706V29.134Z" fill="#3B2714"/>
<path d="M12.9706 26.708H10.5407V29.1337H12.9706V26.708Z" fill="#3B2714"/>
<path d="M12.9706 24.2778H10.5407V26.708H12.9706V24.2778Z" fill="#3B2714"/>
<path d="M12.9706 21.8521H10.5407V24.2778H12.9706V21.8521Z" fill="#3B2714"/>
<path d="M12.9706 19.4221H10.5407V21.8523H12.9706V19.4221Z" fill="#3B2714"/>
<path d="M12.9706 16.9919H10.5407V19.4222H12.9706V16.9919Z" fill="#3B2714"/>
<path d="M12.9706 14.5662H10.5407V16.9919H12.9706V14.5662Z" fill="#3B2714"/>
<path d="M12.9706 12.136H10.5407V14.5662H12.9706V12.136Z" fill="#3B2714"/>
<path d="M12.9706 9.71021H10.5407V12.1359H12.9706V9.71021Z" fill="#3B2714"/>
<path d="M12.9706 7.28003H10.5407V9.71024H12.9706V7.28003Z" fill="#3B2714"/>
<path d="M12.9706 4.8501H10.5407V7.28031H12.9706V4.8501Z" fill="#FBDE76"/>
<path d="M10.5406 31.564H8.11044V33.9942H10.5406V31.564Z" fill="#3B2714"/>
<path d="M10.5406 29.134H8.11044V31.5642H10.5406V29.134Z" fill="#FBDE76"/>
<path d="M10.5406 26.708H8.11044V29.1337H10.5406V26.708Z" fill="#FBDE76"/>
<path d="M10.5406 24.2778H8.11044V26.708H10.5406V24.2778Z" fill="#FBDE76"/>
<path d="M10.5406 21.8521H8.11044V24.2778H10.5406V21.8521Z" fill="#FBDE76"/>
<path d="M10.5406 19.4221H8.11044V21.8523H10.5406V19.4221Z" fill="#FBDE76"/>
<path d="M10.5406 16.9919H8.11044V19.4222H10.5406V16.9919Z" fill="#FBDE76"/>
<path d="M10.5406 14.5662H8.11044V16.9919H10.5406V14.5662Z" fill="#FBDE76"/>
<path d="M10.5406 12.136H8.11044V14.5662H10.5406V12.136Z" fill="#FBDE76"/>
<path d="M10.5406 9.71021H8.11044V12.1359H10.5406V9.71021Z" fill="#FBDE76"/>
<path d="M10.5406 7.28003H8.11044V9.71024H10.5406V7.28003Z" fill="#FBDE76"/>
<path d="M10.5406 4.8501H8.11044V7.28031H10.5406V4.8501Z" fill="#FBDE76"/>
<path d="M8.11045 31.564H5.68472V33.9942H8.11045V31.564Z" fill="#3B2714"/>
<path d="M8.11045 29.134H5.68472V31.5642H8.11045V29.134Z" fill="#FBDE76"/>
<path d="M8.11045 26.708H5.68472V29.1337H8.11045V26.708Z" fill="#FBDE76"/>
<path d="M8.11045 24.2778H5.68472V26.708H8.11045V24.2778Z" fill="#FBDE76"/>
<path d="M8.11045 21.8521H5.68472V24.2778H8.11045V21.8521Z" fill="white"/>
<path d="M8.11045 19.4221H5.68472V21.8523H8.11045V19.4221Z" fill="#FBDE76"/>
<path d="M5.68503 31.564H3.25482V33.9942H5.68503V31.564Z" fill="#3B2714"/>
<path d="M5.68503 29.134H3.25482V31.5642H5.68503V29.134Z" fill="#FBDE76"/>
<path d="M5.68503 26.708H3.25482V29.1337H5.68503V26.708Z" fill="white"/>
<path d="M5.68503 24.2778H3.25482V26.708H5.68503V24.2778Z" fill="white"/>
<path d="M5.68503 21.8521H3.25482V24.2778H5.68503V21.8521Z" fill="white"/>
<path d="M5.68503 19.4221H3.25482V21.8523H5.68503V19.4221Z" fill="#FBDE76"/>
<path d="M3.25453 29.134H0.828796V31.5642H3.25453V29.134Z" fill="#FBDE76"/>
<path d="M3.25453 26.708H0.828796V29.1337H3.25453V26.708Z" fill="#FBDE76"/>
<path d="M3.25453 24.2778H0.828796V26.708H3.25453V24.2778Z" fill="#FBDE76"/>
<path d="M3.25453 21.8521H0.828796V24.2778H3.25453V21.8521Z" fill="#FBDE76"/>
</svg>
