<svg width="32" height="34" viewBox="0 0 32 34" fill="none" xmlns="http://www.w3.org/2000/svg">
<path d="M2.30019 9.06567H0.0317078V20.3561H2.30019V9.06567Z" fill="#159CD7"/>
<path d="M6.83764 2.26245H4.56865V4.53094H6.83764V2.26245Z" fill="#159CD7"/>
<path d="M29.5604 18.1172H27.2914V20.3862H29.5604V18.1172Z" fill="#159CD7"/>
<path d="M27.2919 13.5767H25.0229V18.1161H27.2919V13.5767Z" fill="#159CD7"/>
<path d="M25.0228 11.3083H22.7538V13.5768H25.0228V11.3083Z" fill="#159CD7"/>
<path d="M18.2169 2.26245H15.9479V4.53094H18.2169V2.26245Z" fill="#159CD7"/>
<path d="M6.83764 24.9111H4.56865V27.1801H6.83764V24.9111Z" fill="#159CD7"/>
<path d="M29.5604 24.9111H27.2914V27.1801H29.5604V24.9111Z" fill="#159CD7"/>
<path d="M4.56918 20.3555H2.3002V24.9106H4.56918V20.3555Z" fill="#159CD7"/>
<path d="M11.3928 27.1882H6.83768V29.4572H11.3928V27.1882Z" fill="#159CD7"/>
<path d="M27.3005 27.1882H22.7453V29.4572H27.3005V27.1882Z" fill="#159CD7"/>
<path d="M22.7453 29.4568H11.3928V31.7253H22.7453V29.4568Z" fill="#159CD7"/>
<path d="M4.56918 4.51147H2.3002V9.0666H4.56918V4.51147Z" fill="#159CD7"/>
<path d="M20.4853 4.51147H18.2163V9.0666H20.4853V4.51147Z" fill="#159CD7"/>
<path d="M22.7539 9.08472H20.4855V11.3466H22.7539V9.08472Z" fill="#159CD7"/>
<path d="M15.9479 -0.00585938H6.83768V2.26262H15.9479V-0.00585938Z" fill="#159CD7"/>
<path d="M31.8289 20.3857H29.5599V24.9232H31.8289V20.3857Z" fill="#159CD7"/>
<path d="M27.2888 20.3595V18.1152H25.0203V13.5777H22.7513V11.3501H20.4829V9.06499H18.2144V4.52752H15.9459V2.25903H6.83816V4.52752L4.56968 4.51087V9.06448H2.30119V20.359H4.56968V24.9126H6.83816V27.1896H11.3918V29.4581H22.7438V27.1906H27.2893V24.9222H29.5578V20.36L27.2888 20.3595ZM22.7433 18.1071V22.6365H18.2139V18.1071H22.7433Z" fill="#CBE4F9"/>
<path d="M22.7544 22.6426H18.2169V24.9116H22.7544V22.6426Z" fill="#159CD7"/>
<path d="M22.7518 15.8386H18.2143V18.1076H22.7518V15.8386Z" fill="#159CD7"/>
<path d="M25.0223 18.1052H22.7538V22.6427H25.0223V18.1052Z" fill="#159CD7"/>
<path d="M18.2139 18.1072H15.9454V22.6447H18.2139V18.1072Z" fill="#159CD7"/>
<path d="M22.7437 27.1907H11.3917V29.4597H22.7437V27.1907Z" fill="#A6D0DB"/>
<path d="M27.2893 24.9219H20.4788V27.1909H27.2893V24.9219Z" fill="#A6D0DB"/>
<path d="M29.5623 22.6345H27.2933V24.9035H29.5623V22.6345Z" fill="#A6D0DB"/>
<path d="M25.0228 22.6345H22.7538V24.9035H25.0228V22.6345Z" fill="#A6D0DB"/>
<path d="M18.2023 15.8467H15.9333V18.1157H18.2023V15.8467Z" fill="white"/>
<path d="M20.4853 13.5784H18.2163V15.8469H20.4853V13.5784Z" fill="white"/>
<path d="M22.7589 31.7258H13.6617V33.9943H22.7589V31.7258Z" fill="#2E579F"/>
<path d="M27.3004 29.457H22.7544V31.726H27.3004V29.457Z" fill="#2E579F"/>
<path d="M29.5623 27.1882H27.2933V29.4567H29.5623V27.1882Z" fill="#2E579F"/>
<path d="M31.8289 24.9219H29.5599V27.1904H31.8289V24.9219Z" fill="#2E579F"/>
</svg>
