<svg width="20" height="20" viewBox="0 0 20 20" fill="none" xmlns="http://www.w3.org/2000/svg">
<path d="M20 6.6239H18.6662V7.94767H20V6.6239Z" fill="#3B2714"/>
<path d="M18.6662 7.94763H17.3323V9.27392H18.6662V7.94763Z" fill="#3B2714"/>
<path d="M18.6662 6.6239H17.3323V7.94767H18.6662V6.6239Z" fill="#3B2714"/>
<path d="M17.3323 18.5454H15.9985V19.8692H17.3323V18.5454Z" fill="#3B2714"/>
<path d="M17.3323 17.2191H15.9985V18.5454H17.3323V17.2191Z" fill="#3B2714"/>
<path d="M17.3323 15.8953H15.9985V17.219H17.3323V15.8953Z" fill="#3B2714"/>
<path d="M17.3323 14.5715H15.9985V15.8953H17.3323V14.5715Z" fill="#3B2714"/>
<path d="M17.3323 9.27393H15.9985V10.5977H17.3323V9.27393Z" fill="#3B2714"/>
<path d="M17.3323 7.94763H15.9985V9.27392H17.3323V7.94763Z" fill="#FB900D"/>
<path d="M17.3323 6.6239H15.9985V7.94767H17.3323V6.6239Z" fill="#3B2714"/>
<path d="M15.9985 18.5454H14.6672V19.8692H15.9985V18.5454Z" fill="#3B2714"/>
<path d="M15.9985 17.2191H14.6672V18.5454H15.9985V17.2191Z" fill="#FB900D"/>
<path d="M15.9985 15.8953H14.6672V17.219H15.9985V15.8953Z" fill="#FB900D"/>
<path d="M15.9985 14.5715H14.6672V15.8953H15.9985V14.5715Z" fill="#3B2714"/>
<path d="M15.9985 13.2452H14.6672V14.5715H15.9985V13.2452Z" fill="#3B2714"/>
<path d="M15.9985 10.5977H14.6672V11.9214H15.9985V10.5977Z" fill="#3B2714"/>
<path d="M15.9985 9.27393H14.6672V10.5977H15.9985V9.27393Z" fill="#FB900D"/>
<path d="M15.9985 7.94763H14.6672V9.27392H15.9985V7.94763Z" fill="#FBDE76"/>
<path d="M15.9985 6.6239H14.6672V7.94767H15.9985V6.6239Z" fill="#3B2714"/>
<path d="M14.6672 17.2191H13.3333V18.5454H14.6672V17.2191Z" fill="#3B2714"/>
<path d="M14.6672 15.8953H13.3333V17.219H14.6672V15.8953Z" fill="#FB900D"/>
<path d="M14.6672 14.5715H13.3333V15.8953H14.6672V14.5715Z" fill="#FBC70D"/>
<path d="M14.6672 13.2452H13.3333V14.5715H14.6672V13.2452Z" fill="#FBC70D"/>
<path d="M14.6672 11.9215H13.3333V13.2453H14.6672V11.9215Z" fill="#3B2714"/>
<path d="M14.6672 10.5977H13.3333V11.9214H14.6672V10.5977Z" fill="#FB900D"/>
<path d="M14.6672 9.27393H13.3333V10.5977H14.6672V9.27393Z" fill="#FBC70D"/>
<path d="M14.6672 7.94763H13.3333V9.27392H14.6672V7.94763Z" fill="#FBDE76"/>
<path d="M14.6672 6.6239H13.3333V7.94767H14.6672V6.6239Z" fill="#3B2714"/>
<path d="M13.3333 17.2191H11.9995V18.5454H13.3333V17.2191Z" fill="#3B2714"/>
<path d="M13.3333 15.8953H11.9995V17.219H13.3333V15.8953Z" fill="#FBDE76"/>
<path d="M13.3333 14.5715H11.9995V15.8953H13.3333V14.5715Z" fill="#FBC70D"/>
<path d="M13.3333 13.2452H11.9995V14.5715H13.3333V13.2452Z" fill="#FBC70D"/>
<path d="M13.3333 11.9215H11.9995V13.2453H13.3333V11.9215Z" fill="#FBC70D"/>
<path d="M13.3333 10.5977H11.9995V11.9214H13.3333V10.5977Z" fill="#FBC70D"/>
<path d="M13.3333 9.27393H11.9995V10.5977H13.3333V9.27393Z" fill="#FBC70D"/>
<path d="M13.3333 7.94763H11.9995V9.27392H13.3333V7.94763Z" fill="#FBDE76"/>
<path d="M13.3333 6.6239H11.9995V7.94767H13.3333V6.6239Z" fill="#FB900D"/>
<path d="M13.3333 5.30017H11.9995V6.62394H13.3333V5.30017Z" fill="#3B2714"/>
<path d="M13.3333 3.97388H11.9995V5.30017H13.3333V3.97388Z" fill="#3B2714"/>
<path d="M11.9995 15.8953H10.6657V17.219H11.9995V15.8953Z" fill="#3B2714"/>
<path d="M11.9995 14.5715H10.6657V15.8953H11.9995V14.5715Z" fill="#FBDE76"/>
<path d="M11.9995 13.2452H10.6657V14.5715H11.9995V13.2452Z" fill="#FBC70D"/>
<path d="M11.9995 11.9215H10.6657V13.2453H11.9995V11.9215Z" fill="#FBC70D"/>
<path d="M11.9995 10.5977H10.6657V11.9214H11.9995V10.5977Z" fill="#FBC70D"/>
<path d="M11.9995 9.27393H10.6657V10.5977H11.9995V9.27393Z" fill="#FBC70D"/>
<path d="M11.9995 7.94763H10.6657V9.27392H11.9995V7.94763Z" fill="#FBC70D"/>
<path d="M11.9995 6.6239H10.6657V7.94767H11.9995V6.6239Z" fill="#FBC70D"/>
<path d="M11.9995 5.30017H10.6657V6.62394H11.9995V5.30017Z" fill="#FBC70D"/>
<path d="M11.9995 3.97388H10.6657V5.30017H11.9995V3.97388Z" fill="#FB900D"/>
<path d="M11.9995 2.65002H10.6657V3.97379H11.9995V2.65002Z" fill="#3B2714"/>
<path d="M11.9995 1.32629H10.6657V2.65007H11.9995V1.32629Z" fill="#3B2714"/>
<path d="M10.6657 14.5715H9.33182V15.8953H10.6657V14.5715Z" fill="#3B2714"/>
<path d="M10.6657 13.2452H9.33182V14.5715H10.6657V13.2452Z" fill="#FBDE76"/>
<path d="M10.6657 11.9215H9.33182V13.2453H10.6657V11.9215Z" fill="#FBC70D"/>
<path d="M10.6657 10.5977H9.33182V11.9214H10.6657V10.5977Z" fill="#FBC70D"/>
<path d="M10.6657 9.27393H9.33182V10.5977H10.6657V9.27393Z" fill="#FBC70D"/>
<path d="M10.6657 7.94763H9.33182V9.27392H10.6657V7.94763Z" fill="#FBC70D"/>
<path d="M10.6657 6.6239H9.33182V7.94767H10.6657V6.6239Z" fill="#FBC70D"/>
<path d="M10.6657 5.30017H9.33182V6.62394H10.6657V5.30017Z" fill="#FBC70D"/>
<path d="M10.6657 3.97388H9.33182V5.30017H10.6657V3.97388Z" fill="#FBC70D"/>
<path d="M10.6657 2.65002H9.33182V3.97379H10.6657V2.65002Z" fill="#FBDE76"/>
<path d="M10.6657 1.32629H9.33182V2.65007H10.6657V1.32629Z" fill="#FBDE76"/>
<path d="M10.6657 0H9.33182V1.32629H10.6657V0Z" fill="#3B2714"/>
<path d="M9.33181 15.8953H8.00049V17.219H9.33181V15.8953Z" fill="#3B2714"/>
<path d="M9.33181 14.5715H8.00049V15.8953H9.33181V14.5715Z" fill="#FB900D"/>
<path d="M9.33181 13.2452H8.00049V14.5715H9.33181V13.2452Z" fill="#FBC70D"/>
<path d="M9.33181 11.9215H8.00049V13.2453H9.33181V11.9215Z" fill="#FBC70D"/>
<path d="M9.33181 10.5977H8.00049V11.9214H9.33181V10.5977Z" fill="#FBC70D"/>
<path d="M9.33181 9.27393H8.00049V10.5977H9.33181V9.27393Z" fill="#FBC70D"/>
<path d="M9.33181 7.94763H8.00049V9.27392H9.33181V7.94763Z" fill="#FBC70D"/>
<path d="M9.33181 6.6239H8.00049V7.94767H9.33181V6.6239Z" fill="#FBC70D"/>
<path d="M9.33181 5.30017H8.00049V6.62394H9.33181V5.30017Z" fill="#FBDE76"/>
<path d="M9.33181 3.97388H8.00049V5.30017H9.33181V3.97388Z" fill="#FBDE76"/>
<path d="M9.33181 2.65002H8.00049V3.97379H9.33181V2.65002Z" fill="#3B2714"/>
<path d="M9.33181 1.32629H8.00049V2.65007H9.33181V1.32629Z" fill="#3B2714"/>
<path d="M8.0005 17.2191H6.66666V18.5454H8.0005V17.2191Z" fill="#3B2714"/>
<path d="M8.0005 15.8953H6.66666V17.219H8.0005V15.8953Z" fill="#FB900D"/>
<path d="M8.0005 14.5715H6.66666V15.8953H8.0005V14.5715Z" fill="#FBC70D"/>
<path d="M8.0005 13.2452H6.66666V14.5715H8.0005V13.2452Z" fill="#FBC70D"/>
<path d="M8.0005 11.9215H6.66666V13.2453H8.0005V11.9215Z" fill="#FBDE76"/>
<path d="M8.0005 10.5977H6.66666V11.9214H8.0005V10.5977Z" fill="#FBC70D"/>
<path d="M8.0005 9.27393H6.66666V10.5977H8.0005V9.27393Z" fill="#FBC70D"/>
<path d="M8.0005 7.94763H6.66666V9.27392H8.0005V7.94763Z" fill="#FBC70D"/>
<path d="M8.0005 6.6239H6.66666V7.94767H8.0005V6.6239Z" fill="#FBDE76"/>
<path d="M8.0005 5.30017H6.66666V6.62394H8.0005V5.30017Z" fill="#3B2714"/>
<path d="M8.0005 3.97388H6.66666V5.30017H8.0005V3.97388Z" fill="#3B2714"/>
<path d="M6.66666 17.2191H5.33282V18.5454H6.66666V17.2191Z" fill="#3B2714"/>
<path d="M6.66666 15.8953H5.33282V17.219H6.66666V15.8953Z" fill="#FB900D"/>
<path d="M6.66666 14.5715H5.33282V15.8953H6.66666V14.5715Z" fill="#FBDE76"/>
<path d="M6.66666 13.2452H5.33282V14.5715H6.66666V13.2452Z" fill="#FBDE76"/>
<path d="M6.66666 11.9215H5.33282V13.2453H6.66666V11.9215Z" fill="#3B2714"/>
<path d="M6.66666 10.5977H5.33282V11.9214H6.66666V10.5977Z" fill="#FB900D"/>
<path d="M6.66666 9.27393H5.33282V10.5977H6.66666V9.27393Z" fill="#FBC70D"/>
<path d="M6.66666 7.94763H5.33282V9.27392H6.66666V7.94763Z" fill="#FBDE76"/>
<path d="M6.66666 6.6239H5.33282V7.94767H6.66666V6.6239Z" fill="#3B2714"/>
<path d="M5.33283 18.5454H3.99899V19.8692H5.33283V18.5454Z" fill="#3B2714"/>
<path d="M5.33283 17.2191H3.99899V18.5454H5.33283V17.2191Z" fill="#FB900D"/>
<path d="M5.33283 15.8953H3.99899V17.219H5.33283V15.8953Z" fill="#FB900D"/>
<path d="M5.33283 14.5715H3.99899V15.8953H5.33283V14.5715Z" fill="#3B2714"/>
<path d="M5.33283 13.2452H3.99899V14.5715H5.33283V13.2452Z" fill="#3B2714"/>
<path d="M5.33283 10.5977H3.99899V11.9214H5.33283V10.5977Z" fill="#3B2714"/>
<path d="M5.33283 9.27393H3.99899V10.5977H5.33283V9.27393Z" fill="#FB900D"/>
<path d="M5.33283 7.94763H3.99899V9.27392H5.33283V7.94763Z" fill="#FBDE76"/>
<path d="M5.33283 6.6239H3.99899V7.94767H5.33283V6.6239Z" fill="#3B2714"/>
<path d="M3.999 18.5454H2.66516V19.8692H3.999V18.5454Z" fill="#3B2714"/>
<path d="M3.999 17.2191H2.66516V18.5454H3.999V17.2191Z" fill="#3B2714"/>
<path d="M3.999 15.8953H2.66516V17.219H3.999V15.8953Z" fill="#3B2714"/>
<path d="M3.999 9.27393H2.66516V10.5977H3.999V9.27393Z" fill="#3B2714"/>
<path d="M3.999 7.94763H2.66516V9.27392H3.999V7.94763Z" fill="#FBDE76"/>
<path d="M3.999 6.6239H2.66516V7.94767H3.999V6.6239Z" fill="#3B2714"/>
<path d="M2.66515 7.94763H1.33383V9.27392H2.66515V7.94763Z" fill="#3B2714"/>
<path d="M2.66515 6.6239H1.33383V7.94767H2.66515V6.6239Z" fill="#3B2714"/>
<path d="M1.33383 6.6239H0V7.94767H1.33383V6.6239Z" fill="#3B2714"/>
</svg>
