<svg width="26" height="24" viewBox="0 0 26 24" fill="none" xmlns="http://www.w3.org/2000/svg">
<path d="M9.39993 10.6975C9.29809 10.3796 9.20606 10.0715 9.10368 9.75366C9.00185 9.43578 8.90982 9.13814 8.82813 8.84105C8.74645 8.5538 8.67511 8.28735 8.60377 8.04114H8.58362C8.49159 8.48213 8.37941 8.92312 8.23674 9.36411C8.08371 9.85653 7.93069 10.3692 7.76732 10.8819C7.63445 11.4049 7.47108 11.8869 7.31805 12.3175H9.91073C9.84974 12.102 9.76805 11.8459 9.67602 11.5789C9.58399 11.3021 9.4925 11.0044 9.40047 10.6969L9.39993 10.6975Z" fill="#FDF5EE"/>
<path d="M18.1179 10.4207C17.5565 10.3901 17.0255 10.6872 16.7603 11.2004C16.6378 11.4362 16.5664 11.6824 16.5359 11.939H18.6897C18.9549 11.939 19.1493 11.939 19.2718 11.9286C19.3535 11.9182 19.4352 11.898 19.5066 11.8466V11.7443C19.5066 11.6108 19.4864 11.4876 19.4456 11.3645C19.262 10.7901 18.7207 10.4005 18.1185 10.4207H18.1179Z" fill="#FDF5EE"/>
<path d="M20.8435 0H5.02056C2.62175 0 0.682007 1.94889 0.682007 4.35901V19.641C0.682007 22.0511 2.62175 24 5.02056 24H20.8435C23.2423 24 25.182 22.0511 25.182 19.641V4.35901C25.182 1.94889 23.2423 0 20.8435 0ZM13.6568 16.8823H11.5232C11.4519 16.8927 11.3805 16.8413 11.3598 16.7696L10.5229 14.3081V14.3595H6.72559L5.94959 16.78C5.92944 16.8725 5.84775 16.9338 5.75572 16.9234H3.83667C3.72449 16.9234 3.694 16.8621 3.72449 16.739L7.01149 7.2725C7.04199 7.17018 7.07248 7.07772 7.11333 6.95461C7.15417 6.73904 7.17432 6.51362 7.17432 6.28766C7.16397 6.23623 7.20481 6.18534 7.256 6.17495H9.89987C9.9712 6.17495 10.0224 6.20559 10.0327 6.25702L13.7587 16.7188C13.7892 16.8315 13.7587 16.8829 13.6568 16.8829V16.8823ZM21.6298 12.8615C21.6097 13.0562 21.5993 13.2001 21.589 13.2921C21.5786 13.3637 21.5176 13.4256 21.4463 13.4256C21.3853 13.4256 21.2726 13.436 21.1092 13.4463C20.9458 13.4671 20.752 13.477 20.5173 13.477C20.2826 13.477 20.0375 13.436 19.7723 13.436H16.5365C16.5773 13.7538 16.6792 14.0717 16.8529 14.3486C17.0364 14.6254 17.2918 14.841 17.5978 14.9641C18.0063 15.1386 18.4555 15.2305 18.9043 15.2207C19.2615 15.2103 19.6187 15.1797 19.9662 15.108C20.2826 15.067 20.5886 14.9849 20.8745 14.8722C20.9257 14.8311 20.9562 14.8519 20.9562 14.9542V16.5234C20.9562 16.5645 20.9458 16.6055 20.936 16.6465C20.9159 16.6772 20.8952 16.698 20.8647 16.7182C20.538 16.8616 20.2014 16.9644 19.8436 17.0257C19.3639 17.1182 18.8841 17.1592 18.394 17.1488C17.618 17.1488 16.9651 17.0257 16.4341 16.7899C15.9337 16.5743 15.4947 16.2362 15.1478 15.8154C14.8211 15.4155 14.5864 14.9641 14.4437 14.4717C14.301 13.9897 14.2292 13.4868 14.2292 12.9742C14.2292 12.4205 14.3108 11.8766 14.4846 11.3432C14.6479 10.8305 14.9033 10.3583 15.2502 9.93813C15.5873 9.52778 16.0055 9.1995 16.4853 8.96368C16.9651 8.72787 17.5369 8.6458 18.1903 8.6458C18.7316 8.6354 19.2724 8.73827 19.7728 8.96368C20.1916 9.14807 20.5586 9.42546 20.8445 9.78438C21.1097 10.1329 21.3243 10.523 21.4572 10.9536C21.5901 11.364 21.651 11.7842 21.651 12.2049C21.651 12.4511 21.6407 12.6667 21.6309 12.8615H21.6298Z" fill="#FDF5EE"/>
</svg>
