<svg width="20" height="24" viewBox="0 0 20 24" fill="none" xmlns="http://www.w3.org/2000/svg">
<path d="M6.84907 20.4418C5.76858 19.4507 5.45313 17.3682 5.90332 15.8595C6.68388 16.8107 7.76543 17.112 8.88569 17.2821C10.6151 17.5446 12.3136 17.4464 13.9202 16.6532C14.1039 16.5624 14.2738 16.4417 14.4746 16.3194C14.6254 16.7582 14.6646 17.2013 14.6119 17.6522C14.4839 18.7504 13.9393 19.5987 13.073 20.2418C12.7266 20.499 12.3601 20.7289 12.0023 20.9714C10.9032 21.7169 10.6058 22.5909 11.0188 23.8622C11.0286 23.8934 11.0374 23.9244 11.0596 23.9999C10.4985 23.7478 10.0885 23.3809 9.77621 22.8984C9.44633 22.3893 9.28939 21.8261 9.28114 21.2166C9.277 20.92 9.277 20.6208 9.23726 20.3284C9.1402 19.6155 8.8067 19.2963 8.17842 19.278C7.53363 19.2591 7.02358 19.6591 6.88832 20.289C6.878 20.3373 6.86302 20.3851 6.84804 20.4412L6.84907 20.4418Z" fill="#FDF5EE"/>
<path d="M0.682007 15.6082C0.682007 15.6082 3.88158 14.0442 7.0901 14.0442L9.50921 6.53168C9.59978 6.16839 9.86421 5.92148 10.1628 5.92148C10.4613 5.92148 10.7257 6.16839 10.8163 6.53168L13.2354 14.0442C17.0354 14.0442 19.6435 15.6082 19.6435 15.6082C19.6435 15.6082 14.2088 0.751925 14.1982 0.722118C14.0422 0.282886 13.7788 0 13.4238 0H6.90225C6.54724 0 6.29454 0.282886 6.12794 0.722118C6.11619 0.751364 0.682007 15.6082 0.682007 15.6082Z" fill="#FDF5EE"/>
</svg>
