<svg width="18" height="24" viewBox="0 0 18 24" fill="none" xmlns="http://www.w3.org/2000/svg">
<path d="M0.682007 4.49063C0.682007 2.01094 2.7306 0 5.25673 0H13.1073C15.6334 0 17.682 2.01094 17.682 4.49063C17.682 6.06094 16.8607 7.44375 15.6143 8.24531C16.8607 9.04688 17.682 10.4297 17.682 12C17.682 14.4797 15.6334 16.4906 13.1073 16.4906H13.007C11.8227 16.4906 10.7435 16.05 9.93173 15.3234V19.4625C9.93173 21.975 7.8306 24 5.2806 24C2.75925 24 0.682007 21.9938 0.682007 19.5094C0.682007 17.9391 1.50336 16.5562 2.74493 15.7547C1.50336 14.9531 0.682007 13.5703 0.682007 12C0.682007 10.4297 1.50336 9.04688 2.74493 8.24531C1.50336 7.44375 0.682007 6.06094 0.682007 4.49063ZM8.43229 8.98125H5.25673C3.55673 8.98125 2.18145 10.3313 2.18145 12C2.18145 13.6594 3.54718 15.0094 5.23762 15.0187C5.2424 15.0187 5.25195 15.0187 5.25673 15.0187H8.43229V8.98125ZM9.93173 12C9.93173 13.6687 11.307 15.0187 13.007 15.0187H13.1073C14.8025 15.0187 16.1826 13.6687 16.1826 12C16.1826 10.3313 14.8025 8.98125 13.1073 8.98125H13.007C11.307 8.98125 9.93173 10.3313 9.93173 12ZM5.25673 16.4906C5.25195 16.4906 5.2424 16.4906 5.23762 16.4906C3.54718 16.5 2.18145 17.85 2.18145 19.5094C2.18145 21.1734 3.57583 22.5281 5.2806 22.5281C7.01403 22.5281 8.43229 21.15 8.43229 19.4625V16.4906H5.25673ZM5.25673 1.47187C3.55673 1.47187 2.18145 2.82188 2.18145 4.49063C2.18145 6.15938 3.55673 7.50937 5.25673 7.50937H8.43229V1.47187H5.25673ZM9.93173 7.50937H13.1073C14.8025 7.50937 16.1826 6.15938 16.1826 4.49063C16.1826 2.82188 14.8025 1.47187 13.1073 1.47187H9.93173V7.50937Z" fill="#FDF5EE"/>
</svg>
