<svg width="26" height="24" viewBox="0 0 26 24" fill="none" xmlns="http://www.w3.org/2000/svg">
<g clip-path="url(#clip0_296_197)">
<path d="M11.6196 10.6561C11.5153 10.3383 11.4217 10.0304 11.3174 9.71267C11.2132 9.39489 11.1196 9.09743 11.0359 8.79996C10.9523 8.51292 10.8799 8.24618 10.8068 7.99976H10.7862C10.6926 8.44102 10.5777 8.88173 10.4323 9.323C10.2762 9.8153 10.1196 10.3279 9.95288 10.8411C9.80684 11.3641 9.65077 11.846 9.49469 12.2768H12.1407C12.0783 12.0617 11.9947 11.8048 11.901 11.5381C11.8074 11.2609 11.7138 10.9635 11.6196 10.6561Z" fill="#FDF5EE"/>
<path d="M21.255 0H5.10899C2.66138 0 0.682007 1.94891 0.682007 4.35885V19.6412C0.682007 22.0516 2.66138 24 5.10899 24H21.255C23.7032 24 25.682 22.0511 25.682 19.6412V4.35885C25.682 1.94836 23.7026 0 21.255 0ZM15.9635 16.9129H13.7862C13.7132 16.9233 13.6402 16.8717 13.6196 16.7998L12.7656 14.3586H8.89048L8.09895 16.7691C8.07833 16.8613 7.99472 16.9228 7.90107 16.9129H5.94288C5.82805 16.9129 5.79683 16.8514 5.82805 16.7285L9.18201 7.22102C9.21322 7.11839 9.24444 7.00588 9.28624 6.88239C9.32805 6.66725 9.34867 6.44113 9.34867 6.21556C9.33808 6.16451 9.37989 6.11292 9.43229 6.1025H12.1302C12.2132 6.1025 12.255 6.13323 12.2656 6.18482L16.0677 16.7488C16.099 16.8619 16.0677 16.9129 15.9635 16.9129ZM19.5571 16.7998C19.5571 16.9129 19.5153 16.9639 19.4217 16.9639H17.3799C17.2757 16.9639 17.2238 16.9025 17.2238 16.7998V8.90265C17.2238 8.80002 17.2656 8.75886 17.3593 8.75886H19.4217C19.5153 8.75886 19.5571 8.8099 19.5571 8.90265V16.7998ZM19.3386 7.53825C19.099 7.78467 18.745 7.91749 18.3905 7.89718C18.0466 7.90761 17.7132 7.77425 17.4635 7.53825C17.2238 7.28194 17.099 6.94331 17.1095 6.5948C17.099 6.24629 17.2344 5.91809 17.4847 5.68209C17.735 5.44609 18.0683 5.32315 18.4117 5.32315C18.818 5.32315 19.1302 5.44609 19.3598 5.68209C19.5889 5.92797 19.7138 6.25672 19.7037 6.5948C19.7143 6.94331 19.5889 7.28194 19.3392 7.53825H19.3386Z" fill="#FDF5EE"/>
</g>
<defs>
<clipPath id="clip0_296_197">
<rect width="25" height="24" fill="white" transform="translate(0.682007)"/>
</clipPath>
</defs>
</svg>
