<svg width="25" height="24" viewBox="0 0 25 24" fill="none" xmlns="http://www.w3.org/2000/svg">
<path d="M0.682007 0V24H24.682V0H0.682007ZM13.7427 18.7179C13.7427 21.0536 12.3713 22.1196 10.3731 22.1196C8.56772 22.1196 7.52308 21.1875 6.98736 20.0571L8.82486 18.9482C9.17844 19.575 9.49986 20.1054 10.2767 20.1054C11.0159 20.1054 11.4874 19.8161 11.4874 18.6857V11.0196H13.7427V18.7179ZM19.0784 22.1196C16.9838 22.1196 15.6284 21.1232 14.9695 19.8161L16.807 18.7554C17.2892 19.5429 17.9213 20.1268 19.0302 20.1268C19.9624 20.1268 20.5624 19.6607 20.5624 19.0125C20.5624 18.2411 19.9516 17.9679 18.9177 17.5125L18.3552 17.2714C16.7267 16.5804 15.6499 15.7071 15.6499 13.8696C15.6499 12.1768 16.9409 10.8911 18.9499 10.8911C20.3856 10.8911 21.4141 11.3893 22.1534 12.6964L20.3963 13.8214C20.0106 13.1304 19.5927 12.8571 18.9445 12.8571C18.2856 12.8571 17.8677 13.275 17.8677 13.8214C17.8677 14.4964 18.2856 14.7696 19.2552 15.1929L19.8177 15.4339C21.7356 16.2536 22.8124 17.0946 22.8124 18.9804C22.8124 21.0054 21.2159 22.1196 19.0784 22.1196Z" fill="#FDF5EE"/>
</svg>
