<svg width="25" height="24" viewBox="0 0 25 24" fill="none" xmlns="http://www.w3.org/2000/svg">
<g clip-path="url(#clip0_296_132)">
<path d="M11.8961 0.00645849C11.8445 0.0111499 11.6802 0.0275698 11.5324 0.0392982C8.12365 0.346584 4.93069 2.18561 2.9084 5.01217C1.7823 6.58379 1.06207 8.36652 0.789925 10.2548C0.693737 10.9139 0.682007 11.1086 0.682007 12.0023C0.682007 12.8961 0.693737 13.0908 0.789925 13.7499C1.44212 18.256 4.64916 22.0419 8.99872 23.4447C9.77761 23.6956 10.5987 23.8669 11.5324 23.9701C11.8961 24.01 13.4679 24.01 13.8316 23.9701C15.4433 23.7918 16.8087 23.3931 18.1553 22.7058C18.3618 22.6002 18.4017 22.5721 18.3735 22.5486C18.3547 22.5345 17.475 21.3546 16.4193 19.9285L14.5002 17.3365L12.0955 13.778C10.7723 11.8217 9.68377 10.222 9.67438 10.222C9.665 10.2196 9.65561 11.8006 9.65092 13.7311C9.64388 17.1113 9.64154 17.2473 9.59931 17.3271C9.53831 17.442 9.49139 17.4889 9.39286 17.5405C9.31778 17.5781 9.2521 17.5851 8.89784 17.5851H8.49198L8.38406 17.5171C8.31368 17.4725 8.26207 17.4139 8.22687 17.3458L8.17761 17.2403L8.1823 12.5372L8.18934 7.8317L8.26207 7.74022C8.2996 7.69096 8.37937 7.62763 8.43567 7.59713C8.53186 7.55022 8.5694 7.54553 8.97526 7.54553C9.45385 7.54553 9.53362 7.56429 9.65796 7.70034C9.69315 7.73787 10.9952 9.69888 12.553 12.061C14.1107 14.4231 16.241 17.6484 17.2873 19.2318L19.1876 22.11L19.2838 22.0466C20.1354 21.493 21.0363 20.7049 21.7495 19.8839C23.2673 18.141 24.2456 16.0158 24.5741 13.7499C24.6703 13.0908 24.682 12.8961 24.682 12.0023C24.682 11.1086 24.6703 10.9139 24.5741 10.2548C23.9219 5.74872 20.7149 1.96277 16.3653 0.560043C15.5981 0.311399 14.7817 0.140163 13.8668 0.0369525C13.6415 0.0134956 12.0908 -0.0123071 11.8961 0.00645849ZM16.8087 7.26404C16.9213 7.32034 17.0128 7.42824 17.0456 7.54084C17.0644 7.60182 17.0691 8.90603 17.0644 11.8452L17.0574 16.0627L16.3137 14.9227L15.5676 13.7827V10.7169C15.5676 8.73479 15.577 7.62059 15.5911 7.56664C15.6286 7.43528 15.7107 7.33207 15.8234 7.27108C15.9195 7.22182 15.9547 7.21713 16.3231 7.21713C16.6703 7.21713 16.7313 7.22182 16.8087 7.26404Z" fill="#FDF5EE"/>
</g>
<defs>
<clipPath id="clip0_296_132">
<rect width="24" height="24" fill="white" transform="translate(0.682007)"/>
</clipPath>
</defs>
</svg>
