<svg width="26" height="24" viewBox="0 0 26 24" fill="none" xmlns="http://www.w3.org/2000/svg">
<g clip-path="url(#clip0_296_189)">
<path d="M10.9423 8.32799C10.5571 8.17431 10.1402 8.11284 9.71321 8.12272C9.44231 8.12272 9.20262 8.12272 9.00474 8.13315C8.79627 8.12272 8.65078 8.13315 8.57776 8.14358V11.5897C8.7238 11.6001 8.85925 11.61 8.98411 11.61H9.53595C9.94231 11.61 10.3487 11.5485 10.7338 11.4256C11.0672 11.3334 11.3587 11.1386 11.5878 10.8823C11.8063 10.626 11.9105 10.2769 11.9105 9.82576C11.9211 9.50798 11.8375 9.18966 11.6708 8.91305C11.4936 8.64631 11.2439 8.44105 10.9418 8.32854L10.9423 8.32799Z" fill="#FDF5EE"/>
<path d="M21.255 0H5.10899C2.66138 0 0.682007 1.94891 0.682007 4.35885V19.6412C0.682007 22.0516 2.66138 24 5.10899 24H21.255C23.7032 24 25.682 22.0511 25.682 19.6412V4.35885C25.682 1.94836 23.7026 0 21.255 0ZM13.5571 11.9487C13.1402 12.5233 12.5571 12.9536 11.8799 13.2C11.1714 13.4563 10.3905 13.5485 9.53596 13.5485C9.28624 13.5485 9.11958 13.5485 9.01534 13.5381C8.9111 13.5277 8.76562 13.5277 8.56718 13.5277V16.8201C8.57777 16.892 8.52537 16.9535 8.45235 16.9639H6.43173C6.34812 16.9639 6.30687 16.9228 6.30687 16.8306V6.27702C6.30687 6.20513 6.33808 6.16396 6.4111 6.16396C6.58836 6.16396 6.75503 6.16396 6.99472 6.15354C7.24444 6.14311 7.50531 6.14311 7.78624 6.13323C8.06774 6.1228 8.3693 6.1228 8.6926 6.11292C9.01534 6.10249 9.32805 6.1025 9.64076 6.1025C10.4947 6.1025 11.2032 6.20513 11.7868 6.42027C12.3074 6.5948 12.7868 6.88184 13.1826 7.26109C13.5159 7.58929 13.7762 7.98939 13.9429 8.4301C14.099 8.86094 14.1826 9.30165 14.1826 9.76322C14.1826 10.6452 13.9741 11.3735 13.5577 11.9476L13.5571 11.9487ZM20.9423 15.9387C20.6508 16.3492 20.2444 16.667 19.7757 16.8514C19.2651 17.0666 18.6402 17.1796 17.8905 17.1796C17.4111 17.1796 16.9423 17.1385 16.4735 17.0463C16.109 16.9848 15.7444 16.8717 15.4111 16.7181C15.3381 16.6769 15.2862 16.605 15.2963 16.5232V14.7384C15.2963 14.7077 15.3069 14.6665 15.3381 14.6462C15.3693 14.6259 15.4005 14.6358 15.4317 14.6566C15.8381 14.8926 16.2651 15.0567 16.7233 15.1594C17.119 15.262 17.536 15.313 17.9524 15.313C18.3687 15.313 18.6296 15.262 18.8169 15.1692C18.9836 15.0974 19.0984 14.9228 19.0984 14.7384C19.0984 14.5946 19.0153 14.4613 18.8481 14.3279C18.6814 14.1945 18.3375 14.0408 17.8275 13.846C17.2963 13.6616 16.8069 13.4152 16.3481 13.1073C16.0254 12.8817 15.7545 12.5842 15.5566 12.2357C15.3899 11.9075 15.3063 11.5486 15.3169 11.1896C15.3169 10.7484 15.4418 10.328 15.6709 9.94873C15.9312 9.5382 16.3169 9.21 16.7645 9.00528C17.2539 8.75941 17.8687 8.64634 18.6084 8.64634C19.0354 8.64634 19.473 8.67708 19.9 8.73855C20.2127 8.77971 20.5148 8.86149 20.7957 8.97455C20.8375 8.98498 20.8793 9.02559 20.9 9.06675C20.9105 9.10791 20.9206 9.14908 20.9206 9.18969V10.8614C20.9206 10.9026 20.9 10.9438 20.8687 10.9641C20.7751 10.9844 20.7227 10.9844 20.6814 10.9641C20.3687 10.8 20.0354 10.6869 19.6814 10.6156C19.2963 10.5332 18.9105 10.4822 18.5148 10.4822C18.3063 10.4718 18.0878 10.5025 17.8899 10.5541C17.7545 10.5848 17.6396 10.6567 17.5672 10.7594C17.5153 10.8417 17.4836 10.9438 17.4836 11.0365C17.4836 11.1293 17.5254 11.2209 17.5878 11.3033C17.6814 11.4163 17.8063 11.5085 17.9418 11.5804C18.1814 11.7034 18.4312 11.8164 18.6814 11.919C19.2439 12.1035 19.7857 12.3603 20.2857 12.6677C20.6296 12.8828 20.9105 13.1704 21.1084 13.5189C21.2751 13.8471 21.3587 14.206 21.3481 14.5754C21.3587 15.0573 21.2127 15.5397 20.9418 15.9393L20.9423 15.9387Z" fill="#FDF5EE"/>
</g>
<defs>
<clipPath id="clip0_296_189">
<rect width="25" height="24" fill="white" transform="translate(0.682007)"/>
</clipPath>
</defs>
</svg>
