<svg width="26" height="24" viewBox="0 0 26 24" fill="none" xmlns="http://www.w3.org/2000/svg">
<g clip-path="url(#clip0_296_228)">
<path d="M11.2551 8.3181C10.8699 8.16443 10.4529 8.10296 10.026 8.11284C9.75505 8.11284 9.51536 8.11283 9.31748 8.12326C9.10901 8.11283 8.96352 8.12326 8.8905 8.13369V11.5798C9.03655 11.5903 9.172 11.6001 9.29686 11.6001H9.8487C10.2551 11.6001 10.6614 11.5387 11.0466 11.4157C11.3799 11.3235 11.6714 11.1287 11.9005 10.8724C12.119 10.6161 12.2233 10.267 12.2233 9.81587C12.2339 9.49809 12.1503 9.17977 11.9836 8.90316C11.8063 8.63642 11.5566 8.43116 11.2545 8.31865L11.2551 8.3181Z" fill="#FDF5EE"/>
<path d="M21.255 0H5.10899C2.66138 0 0.682007 1.94891 0.682007 4.35885V19.6412C0.682007 22.0516 2.66138 24 5.10899 24H21.255C23.7032 24 25.682 22.0511 25.682 19.6412V4.35885C25.682 1.94836 23.7026 0 21.255 0ZM13.8699 11.9284C13.4529 12.503 12.8699 12.9333 12.1926 13.1797C11.4841 13.436 10.7032 13.5282 9.84867 13.5282C9.59895 13.5282 9.43173 13.5282 9.32805 13.5178C9.22381 13.5074 9.07777 13.5074 8.87989 13.5074V16.7998C8.89048 16.8717 8.83808 16.9332 8.76506 16.9436H6.74444C6.66138 16.9436 6.61958 16.9025 6.61958 16.8103V6.25617C6.61958 6.18427 6.65079 6.14311 6.72381 6.14311C6.90107 6.14311 7.06774 6.14311 7.30742 6.13268C7.55715 6.12225 7.81802 6.12225 8.09895 6.11237C8.38045 6.10195 8.68256 6.10195 9.00531 6.09207C9.32805 6.08164 9.64076 6.08164 9.95347 6.08164C10.8074 6.08164 11.5159 6.18427 12.0995 6.39941C12.6201 6.57394 13.0995 6.86098 13.4953 7.24023C13.8286 7.56843 14.0889 7.96853 14.2556 8.40925C14.4117 8.84008 14.4953 9.2808 14.4953 9.74237C14.4953 10.6243 14.2868 11.3526 13.8704 11.9267L13.8699 11.9284ZM21.0153 8.71769V10.7176C21.0153 10.7994 20.9635 10.8307 20.8487 10.8307C20.4735 10.8203 20.0884 10.851 19.7238 10.9333C19.4217 10.9948 19.1302 11.087 18.8487 11.2105C18.6508 11.3027 18.4635 11.4256 18.3175 11.5897V16.8207C18.3175 16.9233 18.2757 16.9645 18.182 16.9645H16.1302C16.0471 16.9749 15.9741 16.9233 15.9635 16.8415V11.1183C15.9635 10.8719 15.9635 10.6156 15.9529 10.3488C15.9423 10.0821 15.9423 9.81536 15.9323 9.54863C15.9323 9.31263 15.9117 9.08706 15.8905 8.85106C15.8799 8.80002 15.9111 8.74843 15.9635 8.738C15.9635 8.72757 15.9841 8.72757 15.9947 8.738H17.8175C17.9217 8.738 18.0047 8.8099 18.036 8.9021C18.0672 8.98388 18.0878 9.0662 18.0984 9.15841C18.119 9.26104 18.1402 9.37355 18.1502 9.47618C18.1608 9.58924 18.1709 9.71218 18.1709 9.84555C18.4836 9.48661 18.8581 9.18914 19.2857 8.96357C19.7651 8.69684 20.3169 8.56347 20.8693 8.56347C20.9423 8.55304 21.0047 8.60463 21.0153 8.67653V8.71769Z" fill="#FDF5EE"/>
</g>
<defs>
<clipPath id="clip0_296_228">
<rect width="25" height="24" fill="white" transform="translate(0.682007)"/>
</clipPath>
</defs>
</svg>
