<svg width="28" height="24" viewBox="0 0 28 24" fill="none" xmlns="http://www.w3.org/2000/svg">
<path d="M22.7355 7.77749C22.4508 7.68106 22.166 7.59 21.8812 7.50429C21.9287 7.30608 21.9709 7.10788 22.0131 6.90968C22.6617 3.71699 22.2345 1.15105 20.7949 0.304671C19.408 -0.504214 17.1457 0.336812 14.857 2.3617C14.6302 2.55991 14.4088 2.76883 14.1978 2.97774C14.0554 2.83846 13.9078 2.69919 13.7601 2.56526C11.3607 0.401094 8.95603 -0.509571 7.51638 0.342169C6.13474 1.15641 5.72341 3.57235 6.30349 6.59362C6.3615 6.89361 6.42478 7.18823 6.49861 7.48822C6.16111 7.58464 5.82888 7.69178 5.51775 7.80427C2.70173 8.79529 0.682007 10.3595 0.682007 11.9773C0.682007 13.6486 2.83357 15.3253 5.76033 16.3431C5.99763 16.4235 6.23494 16.5038 6.47751 16.5734C6.39841 16.8949 6.32986 17.2109 6.26658 17.5377C5.71287 20.5107 6.14529 22.8678 7.52693 23.6766C8.95076 24.5123 11.3449 23.6552 13.6758 21.5821C13.8603 21.416 14.0449 21.2446 14.2295 21.0625C14.4615 21.2928 14.7041 21.5125 14.9467 21.7267C17.2037 23.6981 19.4344 24.4962 20.8107 23.6874C22.2345 22.8517 22.6986 20.3179 22.0974 17.2323C22.05 16.9966 21.9972 16.7556 21.9392 16.5092C22.108 16.461 22.2715 16.4074 22.4349 16.3538C25.4777 15.3307 27.682 13.6754 27.682 11.9773C27.682 10.3541 25.6043 8.77922 22.7355 7.77749ZM15.6006 3.22952C17.5623 1.49389 19.3922 0.813572 20.2254 1.30105C21.1166 1.82066 21.4594 3.92055 20.9004 6.67933C20.8635 6.86146 20.8265 7.03824 20.7791 7.21502C19.6084 6.94717 18.4219 6.75433 17.2301 6.64719C16.5445 5.65081 15.7957 4.69729 14.9836 3.8027C15.1892 3.60449 15.3896 3.41701 15.6006 3.22952ZM9.49919 14.7575C9.76814 15.2235 10.0424 15.6896 10.3324 16.1449C9.50974 16.0538 8.69236 15.9199 7.88552 15.7431C8.11755 14.9717 8.40759 14.1736 8.74509 13.3593C8.98767 13.8307 9.23552 14.2968 9.49919 14.7575ZM7.90134 8.31317C8.66072 8.14175 9.46755 8.00247 10.306 7.89534C10.0265 8.33996 9.75232 8.79529 9.49392 9.25598C9.23552 9.71131 8.9824 10.1774 8.74509 10.6488C8.41287 9.85059 8.13337 9.06849 7.90134 8.31317ZM9.34626 12.004C9.69431 11.2648 10.074 10.5416 10.4748 9.82916C10.8756 9.1167 11.308 8.42567 11.7615 7.74535C12.5525 7.68642 13.3594 7.65428 14.182 7.65428C15.0047 7.65428 15.8168 7.68642 16.6025 7.74535C17.0508 8.42031 17.4779 9.11134 17.884 9.81845C18.29 10.5256 18.6697 11.2487 19.0283 11.9826C18.675 12.7219 18.2953 13.4504 17.8892 14.1682C17.4885 14.8807 17.0613 15.5717 16.6131 16.2574C15.8273 16.3163 15.0099 16.3431 14.182 16.3431C13.3541 16.3431 12.5525 16.3163 11.7773 16.2681C11.3185 15.5878 10.8861 14.8914 10.4801 14.1789C10.074 13.4665 9.69958 12.7433 9.34626 12.004ZM18.8701 14.7468C19.139 14.2754 19.3922 13.7986 19.64 13.3165C19.9775 14.0932 20.2728 14.8807 20.5312 15.6896C19.7138 15.8771 18.8859 16.0217 18.0527 16.1181C18.3375 15.6681 18.6064 15.2074 18.8701 14.7468ZM19.6295 10.6488C19.3816 10.1774 19.1285 9.70595 18.8648 9.24527C18.6064 8.78993 18.3375 8.33996 18.058 7.89534C18.907 8.00247 19.7191 8.14711 20.4785 8.32388C20.2359 9.1167 19.9511 9.88809 19.6295 10.6488ZM14.1926 4.6223C14.7463 5.23298 15.2683 5.8758 15.7535 6.54005C14.7093 6.49184 13.6599 6.49184 12.6158 6.54005C13.1326 5.84902 13.6652 5.20619 14.1926 4.6223ZM8.07537 1.33854C8.9613 0.813572 10.9283 1.56353 13.0008 3.42772C13.1326 3.54557 13.2644 3.67413 13.4015 3.8027C12.5842 4.69729 11.8301 5.65081 11.1392 6.64719C9.94744 6.75433 8.76619 6.94182 7.59548 7.2043C7.52693 6.9311 7.46892 6.65255 7.41091 6.37399C6.91521 3.78127 7.24216 1.82602 8.07537 1.33854ZM6.78337 15.4592C6.56189 15.3949 6.34568 15.3253 6.12947 15.2503C5.00623 14.8914 3.73005 14.3236 2.8072 13.579C2.27458 13.204 1.91599 12.6254 1.8158 11.9773C1.8158 10.997 3.4822 9.74345 5.88689 8.89171C6.18748 8.78457 6.49333 8.68815 6.79919 8.59708C7.15779 9.75952 7.59021 10.9005 8.09119 12.004C7.58494 13.1236 7.14724 14.2807 6.78337 15.4592ZM12.9322 20.7089C12.0621 21.5178 11.0549 22.1606 9.95798 22.5999C9.37263 22.8838 8.69763 22.9106 8.09646 22.6695C7.25798 22.1767 6.90994 20.2857 7.38455 17.7412C7.44255 17.4413 7.50584 17.1413 7.57966 16.8466C8.76091 17.1038 9.95271 17.2806 11.1603 17.3716C11.8564 18.3733 12.6211 19.3322 13.4385 20.2322C13.2697 20.3982 13.101 20.5589 12.9322 20.7089ZM14.2242 19.4072C13.6863 18.818 13.1484 18.1644 12.6263 17.4627C13.1326 17.4841 13.6547 17.4948 14.182 17.4948C14.7252 17.4948 15.2578 17.4841 15.7851 17.4573C15.3 18.1376 14.7779 18.7858 14.2242 19.4072ZM21.1166 21.0143C21.0691 21.6678 20.7527 22.2785 20.2465 22.691C19.408 23.1838 17.6203 22.541 15.6902 20.8589C15.4687 20.6661 15.2472 20.4572 15.0205 20.2429C15.8273 19.3376 16.5709 18.3787 17.2459 17.3716C18.4535 17.2698 19.6558 17.0823 20.8424 16.8091C20.8951 17.0288 20.9426 17.2484 20.9847 17.4627C21.2431 18.6198 21.2853 19.8251 21.1166 21.0143ZM22.0763 15.2557C21.9287 15.3039 21.781 15.3521 21.6281 15.3949C21.259 14.2271 20.8054 13.0861 20.2834 11.9773C20.7896 10.8845 21.2168 9.75952 21.5754 8.6078C21.8496 8.68815 22.1133 8.77386 22.3664 8.85957C24.8238 9.71667 26.5482 10.9916 26.5482 11.9665C26.5482 13.0165 24.7078 14.3718 22.0763 15.2557ZM14.182 14.4521C15.5162 14.4521 16.5972 13.354 16.5972 11.9987C16.5972 10.6434 15.5162 9.54525 14.182 9.54525C12.8478 9.54525 11.7668 10.6434 11.7668 11.9987C11.7668 13.354 12.8478 14.4521 14.182 14.4521Z" fill="#FDF5EE"/>
</svg>
