<svg width="41" height="24" viewBox="0 0 41 24" fill="none" xmlns="http://www.w3.org/2000/svg">
<path fill-rule="evenodd" clip-rule="evenodd" d="M20.6436 0C15.3102 0 11.9769 2.66667 10.6436 8C12.6436 5.33333 14.9769 4.33333 17.6436 5C19.165 5.38 20.2524 6.48444 21.4562 7.70593C23.4169 9.6963 25.6865 12 30.6436 12C35.9769 12 39.3102 9.33333 40.6436 4C38.6436 6.66667 36.3102 7.66667 33.6436 7C32.1221 6.62 31.0347 5.51556 29.831 4.29407C27.8702 2.3037 25.6006 0 20.6436 0ZM10.6436 12C5.31022 12 1.97689 14.6667 0.643555 20C2.64355 17.3333 4.97689 16.3333 7.64356 17C9.16504 17.3807 10.2524 18.4844 11.4561 19.7059C13.4169 21.6963 15.6865 24 20.6436 24C25.9769 24 29.3102 21.3333 30.6436 16C28.6436 18.6667 26.3102 19.6667 23.6436 19C22.1221 18.62 21.0347 17.5156 19.831 16.2941C17.8702 14.3037 15.6006 12 10.6436 12Z" fill="#FDF5EE"/>
</svg>
